<svg id="svg" version="1.1" width="500" height="500" xmlns="http://www.w3.org/2000/svg" xmlns:xlink="http://www.w3.org/1999/xlink" style="display: block;"><g id="svgg"><path id="path0" d="M0.000 200.000 L 0.000 400.000 200.000 400.000 L 400.000 400.000 400.000 200.000 L 400.000 0.000 200.000 0.000 L 0.000 0.000 0.000 200.000 M206.400 3.600 C 208.143 4.700,209.935 5.600,210.384 5.600 C 210.833 5.600,211.200 5.936,211.200 6.346 C 211.200 6.756,211.989 7.343,212.954 7.649 C 213.918 7.955,216.985 9.599,219.768 11.303 C 222.551 13.006,225.006 14.400,225.223 14.400 C 225.440 14.400,228.490 16.200,232.000 18.400 C 235.510 20.600,238.574 22.400,238.807 22.400 C 239.041 22.400,240.575 23.243,242.216 24.274 C 243.857 25.305,247.360 27.338,250.000 28.794 C 252.640 30.249,254.980 31.663,255.200 31.936 C 255.420 32.209,256.500 32.867,257.600 33.398 C 258.700 33.929,261.040 35.254,262.800 36.341 C 264.560 37.428,266.900 38.809,268.000 39.410 C 275.350 43.426,279.655 45.905,280.000 46.320 C 280.220 46.584,282.200 47.745,284.400 48.899 C 294.243 54.065,301.435 58.173,302.401 59.182 C 302.792 59.591,306.223 61.515,310.584 63.771 C 311.785 64.393,312.977 65.239,313.231 65.651 C 313.486 66.063,314.393 66.400,315.247 66.400 C 316.101 66.400,316.800 66.718,316.800 67.107 C 316.800 67.495,317.430 68.051,318.200 68.342 C 320.830 69.334,323.200 70.779,323.200 71.390 C 323.200 71.725,323.603 72.000,324.095 72.000 C 324.588 72.000,327.197 73.350,329.893 75.000 C 336.346 78.949,337.066 79.378,339.734 80.851 C 340.981 81.540,344.160 83.317,346.800 84.800 C 349.440 86.283,352.619 88.060,353.866 88.749 C 355.112 89.437,356.732 90.365,357.466 90.811 C 358.199 91.256,361.320 93.023,364.400 94.737 C 367.480 96.451,370.810 98.579,371.800 99.466 L 373.600 101.079 373.600 200.000 L 373.600 298.921 371.800 300.565 C 370.810 301.469,367.120 303.827,363.600 305.806 C 360.080 307.785,355.760 310.216,354.000 311.210 C 352.240 312.203,349.540 313.710,348.000 314.559 C 346.460 315.408,343.760 316.992,342.000 318.079 C 340.240 319.166,337.720 320.550,336.400 321.155 C 335.080 321.760,333.100 322.946,332.000 323.791 C 330.900 324.636,329.460 325.574,328.800 325.874 C 328.140 326.175,325.800 327.515,323.600 328.853 C 321.400 330.191,318.970 331.488,318.200 331.736 C 317.430 331.984,316.800 332.505,316.800 332.893 C 316.800 333.282,316.389 333.600,315.886 333.600 C 315.384 333.600,312.693 335.040,309.906 336.800 C 307.119 338.560,304.657 340.000,304.434 340.000 C 304.211 340.000,301.772 341.373,299.014 343.052 C 296.256 344.730,293.460 346.348,292.800 346.647 C 292.140 346.945,290.894 347.642,290.030 348.195 C 285.240 351.262,282.296 352.800,281.216 352.800 C 280.547 352.800,280.000 353.151,280.000 353.580 C 280.000 354.009,278.470 355.102,276.600 356.010 C 274.730 356.917,271.400 358.737,269.200 360.055 C 267.000 361.373,264.660 362.684,264.000 362.967 C 263.340 363.251,262.620 363.698,262.400 363.960 C 261.458 365.083,257.556 367.200,256.428 367.200 C 255.753 367.200,255.200 367.551,255.200 367.980 C 255.200 368.409,253.670 369.500,251.800 370.404 C 249.930 371.309,246.960 372.946,245.200 374.042 C 243.440 375.139,241.100 376.474,240.000 377.009 C 238.900 377.544,237.524 378.436,236.943 378.991 C 236.361 379.546,235.401 380.000,234.810 380.000 C 234.218 380.000,233.613 380.285,233.467 380.633 C 233.225 381.207,231.076 382.486,220.000 388.651 C 218.020 389.753,215.057 391.497,213.416 392.527 C 211.775 393.557,210.237 394.400,210.000 394.400 C 209.763 394.400,208.225 395.247,206.584 396.283 C 200.984 399.817,199.326 399.630,190.800 394.506 C 189.480 393.712,186.240 391.867,183.600 390.406 C 180.960 388.944,177.457 386.905,175.816 385.874 C 174.175 384.843,172.651 384.000,172.430 384.000 C 172.209 384.000,169.675 382.560,166.800 380.800 C 163.925 379.040,161.218 377.600,160.786 377.600 C 160.354 377.600,160.000 377.240,160.000 376.800 C 160.000 376.360,159.486 376.000,158.857 376.000 C 158.229 376.000,157.239 375.546,156.657 374.991 C 156.076 374.436,154.700 373.544,153.600 373.009 C 152.500 372.474,150.160 371.146,148.400 370.058 C 146.640 368.970,143.670 367.278,141.800 366.298 C 139.930 365.318,138.400 364.220,138.400 363.858 C 138.400 363.496,137.724 363.200,136.898 363.200 C 136.072 363.200,134.948 362.660,134.400 362.000 C 133.852 361.340,133.071 360.800,132.664 360.800 C 132.256 360.800,130.037 359.593,127.731 358.118 C 125.425 356.643,121.393 354.245,118.770 352.788 C 116.146 351.331,112.740 349.429,111.200 348.561 C 109.660 347.694,107.140 346.288,105.600 345.437 C 104.060 344.587,101.720 343.208,100.400 342.373 C 99.080 341.539,96.560 340.111,94.800 339.200 C 93.040 338.289,90.520 336.841,89.200 335.981 C 87.880 335.121,86.260 334.166,85.600 333.857 C 84.940 333.549,82.527 332.105,80.238 330.649 C 77.950 329.192,75.725 328.000,75.296 328.000 C 74.866 328.000,74.032 327.550,73.442 327.000 C 72.853 326.450,71.117 325.307,69.585 324.460 C 68.053 323.613,66.620 322.706,66.400 322.444 C 66.180 322.182,65.100 321.535,64.000 321.006 C 62.900 320.478,59.480 318.597,56.400 316.827 C 53.320 315.058,50.260 313.364,49.600 313.063 C 48.940 312.763,48.220 312.286,48.000 312.003 C 47.780 311.721,45.980 310.674,44.000 309.677 C 42.020 308.680,38.600 306.827,36.400 305.559 C 34.200 304.292,31.612 302.900,30.649 302.466 C 27.142 300.886,27.200 302.601,27.200 199.777 C 27.200 101.951,27.215 101.035,28.806 99.595 C 30.374 98.176,32.789 96.629,35.200 95.501 C 35.860 95.192,37.300 94.333,38.400 93.592 C 40.314 92.302,44.845 89.746,54.400 84.564 C 56.820 83.251,60.054 81.328,61.586 80.289 C 63.118 79.250,64.828 78.400,65.386 78.400 C 65.944 78.400,66.400 78.082,66.400 77.693 C 66.400 77.305,67.030 76.775,67.800 76.517 C 69.402 75.979,71.831 74.460,73.423 73.000 C 74.023 72.450,74.866 72.000,75.296 72.000 C 75.725 72.000,77.950 70.825,80.238 69.388 C 82.527 67.951,85.840 66.061,87.600 65.188 C 89.360 64.315,90.980 63.369,91.200 63.088 C 91.420 62.806,93.040 61.792,94.800 60.835 C 96.560 59.878,99.080 58.458,100.400 57.679 C 101.720 56.900,104.960 55.065,107.600 53.600 C 110.240 52.135,113.480 50.280,114.800 49.478 C 116.120 48.676,117.920 47.666,118.800 47.233 C 119.680 46.800,122.200 45.352,124.400 44.015 C 126.600 42.678,129.030 41.366,129.800 41.099 C 130.570 40.832,131.200 40.295,131.200 39.907 C 131.200 39.518,131.876 39.200,132.702 39.200 C 133.528 39.200,134.652 38.660,135.200 38.000 C 135.748 37.340,136.536 36.800,136.951 36.800 C 137.367 36.800,138.887 35.900,140.329 34.800 C 141.771 33.700,143.517 32.800,144.209 32.800 C 144.901 32.800,145.587 32.516,145.733 32.168 C 146.084 31.337,154.197 26.400,155.212 26.400 C 155.645 26.400,156.000 26.040,156.000 25.600 C 156.000 25.160,156.411 24.800,156.914 24.800 C 157.416 24.800,160.107 23.360,162.894 21.600 C 165.681 19.840,168.143 18.400,168.366 18.400 C 168.589 18.400,171.125 16.960,174.000 15.200 C 176.875 13.440,179.409 12.000,179.630 12.000 C 179.851 12.000,181.375 11.157,183.016 10.126 C 184.657 9.095,188.160 7.072,190.800 5.628 C 193.440 4.185,195.942 2.689,196.360 2.302 C 197.882 0.896,203.207 1.584,206.400 3.600 M198.906 70.229 C 198.692 70.575,196.961 71.668,195.058 72.659 C 191.230 74.653,188.610 76.190,188.000 76.800 C 187.780 77.020,186.160 77.911,184.400 78.779 C 182.640 79.647,180.086 81.177,178.724 82.179 C 177.363 83.181,175.691 84.000,175.010 84.000 C 174.329 84.000,173.564 84.540,173.311 85.200 C 173.057 85.860,172.119 86.400,171.225 86.400 C 170.331 86.400,169.600 86.718,169.600 87.107 C 169.600 87.495,168.970 88.032,168.200 88.299 C 167.430 88.566,165.000 89.878,162.800 91.215 C 160.600 92.552,158.080 93.994,157.200 94.421 C 155.353 95.316,152.583 97.013,152.000 97.608 C 151.780 97.832,150.160 98.732,148.400 99.608 C 146.640 100.483,145.020 101.380,144.800 101.600 C 144.207 102.193,141.373 103.933,140.000 104.547 C 139.340 104.842,137.540 105.862,136.000 106.814 C 134.460 107.767,131.580 109.444,129.600 110.541 C 127.620 111.639,123.840 113.733,121.200 115.195 C 115.898 118.130,111.568 120.660,109.170 122.223 C 108.306 122.786,106.970 123.458,106.200 123.717 C 105.430 123.975,104.800 124.505,104.800 124.893 C 104.800 125.282,104.286 125.600,103.657 125.600 C 103.029 125.600,102.039 126.064,101.457 126.630 C 100.876 127.197,99.065 128.287,97.434 129.052 C 95.803 129.817,94.251 130.793,93.987 131.221 C 93.722 131.650,92.807 132.000,91.953 132.000 C 91.099 132.000,90.400 132.336,90.400 132.746 C 90.400 133.156,89.680 133.721,88.800 134.000 C 86.276 134.801,86.276 265.508,88.800 266.168 C 89.680 266.398,90.400 266.905,90.400 267.293 C 90.400 267.682,91.131 268.000,92.025 268.000 C 92.919 268.000,93.857 268.540,94.111 269.200 C 94.364 269.860,95.129 270.400,95.810 270.400 C 96.491 270.400,98.229 271.300,99.671 272.400 C 101.113 273.500,102.857 274.400,103.547 274.400 C 104.236 274.400,104.800 274.696,104.800 275.058 C 104.800 275.420,106.451 276.590,108.468 277.658 C 110.485 278.726,112.735 279.969,113.468 280.421 C 114.201 280.872,117.677 282.852,121.194 284.821 C 124.710 286.789,128.310 288.836,129.194 289.369 C 130.077 289.901,131.340 290.598,132.000 290.917 C 132.660 291.235,135.456 292.870,138.214 294.548 C 140.972 296.227,143.582 297.600,144.014 297.600 C 144.446 297.600,144.800 297.960,144.800 298.400 C 144.800 298.840,145.314 299.200,145.943 299.200 C 146.571 299.200,147.575 299.650,148.174 300.200 C 149.273 301.210,150.511 301.967,155.859 304.900 C 157.476 305.787,160.600 307.587,162.800 308.899 C 165.000 310.211,167.430 311.488,168.200 311.736 C 168.970 311.984,169.600 312.466,169.600 312.807 C 169.600 313.148,170.500 313.652,171.600 313.929 C 172.700 314.205,173.600 314.784,173.600 315.215 C 173.600 315.647,174.302 316.000,175.160 316.000 C 176.018 316.000,177.008 316.469,177.360 317.043 C 177.712 317.617,179.350 318.714,181.000 319.481 C 182.650 320.248,184.000 321.218,184.000 321.638 C 184.000 322.057,184.547 322.400,185.216 322.400 C 185.885 322.400,187.857 323.300,189.600 324.400 C 191.343 325.500,192.963 326.400,193.200 326.400 C 193.437 326.400,195.098 327.326,196.890 328.457 C 202.919 332.263,202.833 332.727,202.582 297.756 L 202.363 267.398 198.761 266.389 C 196.780 265.834,194.953 265.048,194.702 264.641 C 194.450 264.234,193.470 263.564,192.522 263.153 C 190.688 262.355,187.862 260.673,187.200 259.984 C 186.980 259.755,185.900 259.133,184.800 258.602 C 183.700 258.071,181.360 256.732,179.600 255.626 C 177.840 254.521,175.680 253.241,174.800 252.781 C 173.920 252.321,171.400 250.897,169.200 249.616 C 167.000 248.335,163.760 246.541,162.000 245.630 C 158.059 243.588,155.997 242.302,154.577 241.000 C 153.977 240.450,152.971 240.000,152.343 240.000 C 151.714 240.000,151.200 239.640,151.200 239.200 C 151.200 238.760,150.469 238.400,149.575 238.400 C 148.681 238.400,147.743 237.860,147.489 237.200 C 147.236 236.540,146.389 236.000,145.606 236.000 C 141.789 236.000,141.598 234.267,141.627 199.828 C 141.655 165.180,141.797 164.000,145.928 164.000 C 146.628 164.000,147.200 163.664,147.200 163.254 C 147.200 162.844,148.010 162.255,149.000 161.946 C 149.990 161.637,150.980 161.163,151.200 160.892 C 151.420 160.621,153.040 159.681,154.800 158.802 C 156.560 157.923,158.476 156.753,159.057 156.202 C 159.639 155.651,160.629 155.200,161.257 155.200 C 161.886 155.200,162.400 154.840,162.400 154.400 C 162.400 153.960,163.102 153.600,163.960 153.600 C 164.818 153.600,165.808 153.131,166.160 152.557 C 166.512 151.983,168.060 150.886,169.600 150.119 C 171.140 149.353,174.200 147.650,176.400 146.337 C 178.600 145.023,180.940 143.710,181.600 143.419 C 182.260 143.128,183.276 142.419,183.857 141.845 C 184.439 141.270,185.429 140.800,186.057 140.800 C 186.686 140.800,187.200 140.525,187.200 140.190 C 187.200 139.854,187.883 139.224,188.717 138.790 C 197.369 134.285,200.560 132.800,201.588 132.800 C 203.155 132.800,203.090 72.595,201.521 70.705 C 200.495 69.468,199.489 69.285,198.906 70.229 M298.933 139.733 C 297.887 140.780,298.426 141.443,299.991 141.034 C 300.866 140.805,301.385 140.299,301.144 139.909 C 300.624 139.068,299.675 138.992,298.933 139.733 M294.800 142.400 C 294.528 142.840,295.047 143.200,295.953 143.200 C 296.859 143.200,297.600 142.840,297.600 142.400 C 297.600 141.960,297.081 141.600,296.447 141.600 C 295.813 141.600,295.072 141.960,294.800 142.400 M288.400 146.400 C 288.128 146.840,288.647 147.200,289.553 147.200 C 290.459 147.200,291.200 146.840,291.200 146.400 C 291.200 145.960,290.681 145.600,290.047 145.600 C 289.413 145.600,288.672 145.960,288.400 146.400 M284.400 148.800 C 284.128 149.240,284.647 149.600,285.553 149.600 C 286.459 149.600,287.200 149.240,287.200 148.800 C 287.200 148.360,286.681 148.000,286.047 148.000 C 285.413 148.000,284.672 148.360,284.400 148.800 M277.600 152.800 C 277.600 153.240,278.341 153.600,279.247 153.600 C 280.153 153.600,280.672 153.240,280.400 152.800 C 280.128 152.360,279.387 152.000,278.753 152.000 C 278.119 152.000,277.600 152.360,277.600 152.800 M277.600 247.200 C 277.600 247.640,278.341 248.000,279.247 248.000 C 280.153 248.000,280.672 247.640,280.400 247.200 C 280.128 246.760,279.387 246.400,278.753 246.400 C 278.119 246.400,277.600 246.760,277.600 247.200 M288.000 253.600 C 288.000 254.040,288.720 254.400,289.600 254.400 C 290.480 254.400,291.200 254.040,291.200 253.600 C 291.200 253.160,290.480 252.800,289.600 252.800 C 288.720 252.800,288.000 253.160,288.000 253.600 M295.200 257.600 C 295.200 258.040,295.740 258.400,296.400 258.400 C 297.060 258.400,297.600 258.040,297.600 257.600 C 297.600 257.160,297.060 256.800,296.400 256.800 C 295.740 256.800,295.200 257.160,295.200 257.600 M298.000 260.000 C 298.272 260.440,298.992 260.800,299.600 260.800 C 300.208 260.800,300.928 260.440,301.200 260.000 C 301.482 259.544,300.793 259.200,299.600 259.200 C 298.407 259.200,297.718 259.544,298.000 260.000 M302.000 261.600 C 302.272 262.040,303.034 262.400,303.694 262.400 C 304.354 262.400,304.672 262.040,304.400 261.600 C 304.128 261.160,303.366 260.800,302.706 260.800 C 302.046 260.800,301.728 261.160,302.000 261.600 " stroke="none" fill="#ffffff" fill-rule="evenodd"></path><path id="path1" d="M195.600 5.648 C 193.400 6.914,191.060 8.205,190.400 8.516 C 189.740 8.827,187.001 10.458,184.314 12.141 C 181.626 13.823,179.046 15.200,178.580 15.200 C 178.114 15.200,177.613 15.470,177.467 15.800 C 177.320 16.130,175.940 17.078,174.400 17.907 C 172.860 18.736,165.660 22.838,158.400 27.023 C 151.140 31.208,143.580 35.529,141.600 36.623 C 139.620 37.718,137.640 38.878,137.200 39.200 C 136.378 39.802,131.359 42.635,126.401 45.297 C 124.861 46.124,123.421 47.016,123.201 47.280 C 122.980 47.545,120.640 48.951,118.000 50.406 C 115.360 51.862,111.857 53.895,110.216 54.926 C 108.575 55.957,107.036 56.800,106.796 56.800 C 106.557 56.800,104.081 58.240,101.294 60.000 C 98.507 61.760,95.816 63.200,95.314 63.200 C 94.811 63.200,94.400 63.560,94.400 64.000 C 94.400 64.440,93.989 64.800,93.486 64.800 C 92.984 64.800,90.293 66.240,87.506 68.000 C 84.719 69.760,82.257 71.200,82.034 71.200 C 81.811 71.200,79.275 72.640,76.400 74.400 C 73.525 76.160,71.005 77.600,70.800 77.600 C 70.595 77.600,68.075 79.040,65.200 80.800 C 62.325 82.560,59.781 84.000,59.547 84.000 C 59.174 84.000,53.602 87.327,49.153 90.205 C 48.299 90.758,47.060 91.455,46.400 91.753 C 45.740 92.052,42.944 93.670,40.186 95.348 C 37.428 97.027,34.871 98.400,34.503 98.400 C 34.135 98.400,32.881 99.283,31.717 100.362 L 29.600 102.324 29.600 200.000 L 29.600 297.676 31.554 299.487 C 32.628 300.483,34.964 301.996,36.744 302.849 C 38.525 303.702,39.986 304.670,39.991 305.000 C 39.996 305.330,40.368 305.600,40.818 305.600 C 41.268 305.600,44.528 307.310,48.063 309.400 C 58.285 315.445,58.555 315.601,63.600 318.388 C 66.240 319.847,70.297 322.246,72.616 323.720 C 74.934 325.194,76.996 326.400,77.196 326.400 C 77.397 326.400,82.483 329.280,88.499 332.800 C 94.514 336.320,99.569 339.200,99.733 339.200 C 99.898 339.200,101.375 340.043,103.016 341.073 C 104.657 342.103,107.620 343.847,109.600 344.949 C 120.676 351.114,122.825 352.393,123.067 352.967 C 123.213 353.315,123.657 353.600,124.053 353.600 C 124.448 353.600,127.125 355.040,130.000 356.800 C 132.875 358.560,135.395 360.000,135.600 360.000 C 135.805 360.000,138.325 361.440,141.200 363.200 C 144.075 364.960,146.636 366.400,146.891 366.400 C 147.145 366.400,148.309 367.065,149.477 367.878 C 150.644 368.691,153.580 370.438,156.000 371.760 C 159.950 373.918,172.529 381.152,178.800 384.871 C 180.120 385.654,182.460 387.004,184.000 387.870 C 185.540 388.736,189.671 391.100,193.181 393.123 C 200.702 397.457,199.785 397.333,204.572 394.672 C 206.677 393.502,209.106 392.152,209.969 391.672 C 210.832 391.192,212.028 390.350,212.626 389.800 C 213.225 389.250,214.083 388.800,214.534 388.800 C 214.984 388.800,216.309 388.131,217.477 387.314 C 218.644 386.497,221.220 384.932,223.200 383.836 C 227.526 381.442,242.482 372.842,246.400 370.496 C 247.940 369.574,249.920 368.466,250.800 368.033 C 251.680 367.600,254.092 366.245,256.160 365.023 C 258.227 363.800,262.887 361.045,266.514 358.900 C 273.311 354.880,274.642 354.120,282.800 349.605 C 285.440 348.143,288.973 346.085,290.652 345.031 C 292.331 343.977,294.851 342.465,296.252 341.673 C 297.653 340.880,304.761 336.809,312.046 332.626 C 319.331 328.442,327.431 323.836,330.046 322.390 C 334.395 319.984,340.543 316.316,344.447 313.798 C 345.301 313.247,346.720 312.447,347.600 312.021 C 348.480 311.594,351.000 310.160,353.200 308.833 C 355.400 307.507,357.740 306.169,358.400 305.861 C 359.060 305.553,362.030 303.751,365.000 301.856 L 370.400 298.410 370.400 200.060 L 370.400 101.709 368.077 100.054 C 366.799 99.145,365.515 98.400,365.223 98.400 C 364.932 98.400,363.513 97.500,362.071 96.400 C 360.629 95.300,359.162 94.400,358.811 94.400 C 358.460 94.400,355.893 92.960,353.106 91.200 C 350.319 89.440,347.842 88.000,347.600 88.000 C 347.358 88.000,344.881 86.560,342.094 84.800 C 339.307 83.040,336.616 81.600,336.114 81.600 C 335.611 81.600,335.200 81.240,335.200 80.800 C 335.200 80.360,334.846 80.000,334.414 80.000 C 333.982 80.000,331.275 78.560,328.400 76.800 C 325.525 75.040,323.044 73.600,322.887 73.600 C 322.730 73.600,318.507 71.227,313.501 68.328 C 308.495 65.428,302.420 61.951,300.000 60.602 C 297.580 59.252,294.257 57.305,292.616 56.274 C 290.975 55.243,289.265 54.400,288.816 54.400 C 288.367 54.400,288.000 54.082,288.000 53.693 C 288.000 53.305,287.370 52.784,286.600 52.536 C 285.830 52.288,283.400 50.992,281.200 49.656 C 279.000 48.320,276.480 46.871,275.600 46.436 C 274.720 46.001,272.200 44.560,270.000 43.233 C 267.800 41.907,265.460 40.573,264.800 40.269 C 264.140 39.965,262.160 38.818,260.400 37.720 C 256.447 35.254,232.631 21.600,232.282 21.600 C 232.014 21.600,222.050 15.721,220.000 14.354 C 219.340 13.914,218.170 13.342,217.400 13.083 C 216.630 12.825,216.000 12.295,216.000 11.907 C 216.000 11.518,215.544 11.200,214.986 11.200 C 214.428 11.200,212.718 10.355,211.186 9.323 C 201.580 2.851,200.784 2.663,195.600 5.648 M202.337 67.522 C 203.594 68.638,215.826 75.899,220.400 78.244 C 221.720 78.921,222.980 79.690,223.200 79.954 C 223.420 80.217,224.500 80.867,225.600 81.398 C 226.700 81.929,229.040 83.254,230.800 84.341 C 232.560 85.428,234.900 86.809,236.000 87.410 C 242.348 90.879,248.195 94.230,252.614 96.933 C 255.372 98.620,257.819 100.000,258.053 100.000 C 258.286 100.000,260.447 101.260,262.854 102.800 C 265.261 104.340,267.501 105.600,267.830 105.600 C 268.159 105.600,269.682 106.445,271.214 107.477 C 272.746 108.509,275.620 110.254,277.600 111.353 C 279.580 112.453,284.723 115.389,289.028 117.876 C 293.334 120.364,297.086 122.400,297.365 122.400 C 297.645 122.400,298.442 122.903,299.137 123.519 C 299.832 124.134,301.660 125.339,303.200 126.196 C 316.310 133.492,316.541 133.707,313.800 136.032 C 312.571 137.074,300.326 144.210,288.400 150.833 C 284.207 153.161,279.820 155.721,277.170 157.386 C 276.306 157.928,274.160 159.104,272.400 160.000 C 268.968 161.746,266.247 163.350,265.600 164.006 C 262.085 167.575,255.348 168.894,253.600 166.356 C 253.380 166.036,251.650 164.926,249.755 163.888 C 247.861 162.849,245.701 161.638,244.955 161.196 C 243.634 160.412,230.815 153.113,225.982 150.393 C 224.652 149.644,219.252 146.546,213.982 143.507 C 199.001 134.870,200.836 135.375,195.453 138.417 C 192.894 139.864,189.180 141.943,187.200 143.038 C 185.220 144.133,182.700 145.634,181.600 146.374 C 180.500 147.114,178.096 148.483,176.259 149.416 C 171.805 151.678,169.286 153.105,168.800 153.641 C 168.580 153.883,166.240 155.289,163.600 156.764 C 160.960 158.239,157.540 160.150,156.000 161.010 C 147.838 165.569,144.863 167.670,144.464 169.155 C 143.883 171.316,143.889 228.705,144.470 230.868 C 144.837 232.237,152.782 237.757,156.353 239.124 C 156.819 239.303,158.280 240.223,159.600 241.170 C 160.920 242.116,163.440 243.590,165.200 244.445 C 166.960 245.300,168.580 246.206,168.800 246.458 C 169.020 246.710,169.740 247.164,170.400 247.465 C 171.060 247.767,172.680 248.671,174.000 249.474 C 175.320 250.277,178.020 251.839,180.000 252.944 C 181.980 254.049,187.123 256.989,191.428 259.476 C 201.388 265.232,199.185 265.698,219.600 253.521 C 222.317 251.900,237.496 243.166,243.578 239.724 C 245.790 238.472,249.668 236.197,252.196 234.668 C 257.336 231.560,258.197 231.600,264.000 235.213 C 265.980 236.446,269.040 238.250,270.800 239.223 C 279.364 243.956,294.045 252.380,294.400 252.766 C 294.620 253.005,296.780 254.241,299.200 255.514 C 314.861 263.752,317.740 266.759,312.200 269.087 C 308.958 270.449,303.049 273.701,302.400 274.480 C 302.180 274.745,299.859 276.145,297.242 277.592 C 294.625 279.040,289.443 281.974,285.727 284.112 C 282.011 286.250,278.852 288.000,278.706 288.000 C 278.561 288.000,274.657 290.340,270.030 293.200 C 265.403 296.060,261.440 298.400,261.223 298.400 C 261.006 298.400,258.475 299.840,255.600 301.600 C 252.725 303.360,250.205 304.800,250.000 304.800 C 249.795 304.800,247.275 306.240,244.400 308.000 C 241.525 309.760,239.023 311.200,238.841 311.200 C 238.659 311.200,234.066 313.830,228.635 317.045 C 223.205 320.260,218.230 323.145,217.581 323.456 C 216.931 323.767,214.600 325.115,212.400 326.453 C 210.200 327.791,207.770 329.088,207.000 329.336 C 206.230 329.584,205.600 330.023,205.600 330.311 C 205.600 330.600,204.403 331.481,202.940 332.269 L 200.280 333.701 190.321 327.805 C 184.843 324.563,179.830 321.662,179.181 321.360 C 178.531 321.058,177.460 320.445,176.800 320.000 C 175.303 318.989,158.591 309.354,153.200 306.394 C 151.000 305.187,145.481 301.994,140.935 299.299 C 136.389 296.605,132.525 294.400,132.349 294.400 C 132.173 294.400,129.772 293.027,127.014 291.348 C 124.256 289.670,121.460 288.052,120.800 287.753 C 119.371 287.106,116.563 285.369,116.000 284.784 C 115.780 284.555,114.700 283.933,113.600 283.402 C 112.500 282.871,110.160 281.546,108.400 280.459 C 106.640 279.372,104.300 277.991,103.200 277.390 C 95.191 273.014,91.175 270.699,88.400 268.860 L 85.200 266.739 84.995 200.298 C 84.803 137.789,84.874 133.784,86.195 132.631 C 86.968 131.957,89.760 130.231,92.400 128.797 C 95.040 127.362,97.560 125.924,98.000 125.601 C 98.440 125.278,100.420 124.125,102.400 123.038 C 111.928 117.809,115.859 115.561,119.570 113.217 C 121.786 111.817,124.140 110.426,124.800 110.125 C 125.460 109.825,127.800 108.493,130.000 107.167 C 132.200 105.840,134.720 104.389,135.600 103.943 C 136.480 103.497,137.920 102.693,138.800 102.157 C 149.898 95.402,168.672 84.800,169.538 84.800 C 170.012 84.800,170.400 84.504,170.400 84.142 C 170.400 83.780,171.930 82.696,173.800 81.734 C 175.670 80.772,179.000 78.915,181.200 77.606 C 183.400 76.298,185.920 74.874,186.800 74.442 C 187.680 74.010,190.920 72.050,194.000 70.086 C 200.322 66.054,200.592 65.972,202.337 67.522 " stroke="none" fill="#36a2cd" fill-rule="evenodd"></path><path id="path2" d="M189.200 8.124 C 183.920 11.209,177.620 14.818,175.200 16.143 C 172.780 17.468,170.440 18.830,170.000 19.169 C 169.560 19.508,167.580 20.690,165.600 21.796 C 163.620 22.901,157.500 26.413,152.000 29.600 C 126.929 44.127,114.489 51.307,100.000 59.615 C 64.030 80.240,57.160 84.209,56.400 84.806 C 55.420 85.576,41.472 93.600,41.114 93.600 C 40.972 93.600,38.143 95.248,34.825 97.262 L 28.794 100.924 28.997 200.155 L 29.200 299.387 35.600 303.174 C 39.120 305.257,45.060 308.771,48.800 310.983 C 52.540 313.195,56.971 315.774,58.648 316.715 C 63.392 319.379,71.081 323.805,88.000 333.612 C 112.249 347.667,117.012 350.400,117.260 350.400 C 117.525 350.400,137.396 361.999,139.200 363.207 C 139.860 363.649,140.940 364.252,141.600 364.547 C 142.260 364.842,144.240 365.981,146.000 367.079 C 149.803 369.450,184.750 389.522,195.428 395.468 C 200.912 398.522,198.936 399.171,218.000 388.051 C 227.009 382.796,251.521 368.688,255.685 366.361 C 258.523 364.775,273.307 356.160,277.186 353.831 C 278.074 353.299,279.340 352.597,280.000 352.272 C 280.660 351.947,284.800 349.554,289.200 346.954 C 296.370 342.717,315.171 331.921,323.600 327.199 C 325.360 326.214,331.840 322.445,338.000 318.825 C 344.160 315.205,353.814 309.605,359.453 306.381 C 365.092 303.157,370.222 299.782,370.853 298.881 C 372.246 296.892,372.611 104.236,371.226 101.649 C 370.800 100.853,366.570 97.937,361.826 95.168 C 357.082 92.399,350.577 88.573,347.372 86.667 C 344.166 84.760,341.359 83.200,341.133 83.200 C 340.908 83.200,338.753 81.940,336.346 80.400 C 333.939 78.860,331.789 77.600,331.569 77.600 C 331.348 77.600,329.825 76.757,328.184 75.727 C 326.543 74.697,323.580 72.942,321.600 71.827 C 319.620 70.712,310.980 65.737,302.400 60.772 C 293.820 55.807,285.720 51.195,284.400 50.524 C 283.080 49.852,280.127 48.109,277.838 46.651 C 275.550 45.193,273.486 44.000,273.253 44.000 C 273.019 44.000,270.392 42.508,267.414 40.686 C 264.436 38.863,249.760 30.345,234.800 21.758 C 219.840 13.171,206.257 5.303,204.616 4.273 C 200.489 1.683,200.027 1.798,189.200 8.124 M204.572 5.323 C 206.677 6.491,209.654 8.291,211.186 9.323 C 212.718 10.355,214.428 11.200,214.986 11.200 C 215.544 11.200,216.000 11.518,216.000 11.907 C 216.000 12.295,216.630 12.825,217.400 13.083 C 218.170 13.342,219.340 13.914,220.000 14.354 C 222.050 15.721,232.014 21.600,232.282 21.600 C 232.631 21.600,256.447 35.254,260.400 37.720 C 262.160 38.818,264.140 39.965,264.800 40.269 C 265.460 40.573,267.800 41.907,270.000 43.233 C 272.200 44.560,274.720 46.001,275.600 46.436 C 276.480 46.871,279.000 48.320,281.200 49.656 C 283.400 50.992,285.830 52.288,286.600 52.536 C 287.370 52.784,288.000 53.305,288.000 53.693 C 288.000 54.082,288.367 54.400,288.816 54.400 C 289.265 54.400,290.975 55.243,292.616 56.274 C 294.257 57.305,297.580 59.252,300.000 60.602 C 302.420 61.951,308.495 65.428,313.501 68.328 C 318.507 71.227,322.730 73.600,322.887 73.600 C 323.044 73.600,325.525 75.040,328.400 76.800 C 331.275 78.560,333.982 80.000,334.414 80.000 C 334.846 80.000,335.200 80.360,335.200 80.800 C 335.200 81.240,335.611 81.600,336.114 81.600 C 336.616 81.600,339.307 83.040,342.094 84.800 C 344.881 86.560,347.358 88.000,347.600 88.000 C 347.842 88.000,350.319 89.440,353.106 91.200 C 355.893 92.960,358.460 94.400,358.811 94.400 C 359.162 94.400,360.629 95.300,362.071 96.400 C 363.513 97.500,364.932 98.400,365.223 98.400 C 365.515 98.400,366.799 99.145,368.077 100.054 L 370.400 101.709 370.400 200.060 L 370.400 298.410 365.000 301.856 C 362.030 303.751,359.060 305.553,358.400 305.861 C 357.740 306.169,355.400 307.507,353.200 308.833 C 351.000 310.160,348.480 311.594,347.600 312.021 C 346.720 312.447,345.301 313.247,344.447 313.798 C 340.543 316.316,334.395 319.984,330.046 322.390 C 327.431 323.836,319.331 328.442,312.046 332.626 C 304.761 336.809,297.653 340.880,296.252 341.673 C 294.851 342.465,292.331 343.977,290.652 345.031 C 288.973 346.085,285.440 348.143,282.800 349.605 C 274.642 354.120,273.311 354.880,266.514 358.900 C 262.887 361.045,258.227 363.800,256.160 365.023 C 254.092 366.245,251.680 367.600,250.800 368.033 C 249.920 368.466,247.940 369.574,246.400 370.496 C 242.482 372.842,227.526 381.442,223.200 383.836 C 221.220 384.932,218.644 386.497,217.477 387.314 C 216.309 388.131,214.984 388.800,214.534 388.800 C 214.083 388.800,213.225 389.250,212.626 389.800 C 212.028 390.350,210.832 391.192,209.969 391.672 C 209.106 392.152,206.677 393.502,204.572 394.672 C 199.785 397.333,200.702 397.457,193.181 393.123 C 189.671 391.100,185.540 388.736,184.000 387.870 C 182.460 387.004,180.120 385.654,178.800 384.871 C 172.529 381.152,159.950 373.918,156.000 371.760 C 153.580 370.438,150.644 368.691,149.477 367.878 C 148.309 367.065,147.145 366.400,146.891 366.400 C 146.636 366.400,144.075 364.960,141.200 363.200 C 138.325 361.440,135.805 360.000,135.600 360.000 C 135.395 360.000,132.875 358.560,130.000 356.800 C 127.125 355.040,124.448 353.600,124.053 353.600 C 123.657 353.600,123.213 353.315,123.067 352.967 C 122.825 352.393,120.676 351.114,109.600 344.949 C 107.620 343.847,104.657 342.103,103.016 341.073 C 101.375 340.043,99.898 339.200,99.733 339.200 C 99.569 339.200,94.514 336.320,88.499 332.800 C 82.483 329.280,77.397 326.400,77.196 326.400 C 76.996 326.400,74.934 325.194,72.616 323.720 C 70.297 322.246,66.240 319.847,63.600 318.388 C 58.555 315.601,58.285 315.445,48.063 309.400 C 44.528 307.310,41.268 305.600,40.818 305.600 C 40.368 305.600,39.996 305.330,39.991 305.000 C 39.986 304.670,38.525 303.702,36.744 302.849 C 34.964 301.996,32.628 300.483,31.554 299.487 L 29.600 297.676 29.600 200.000 L 29.600 102.324 31.717 100.362 C 32.881 99.283,34.135 98.400,34.503 98.400 C 34.871 98.400,37.428 97.027,40.186 95.348 C 42.944 93.670,45.740 92.052,46.400 91.753 C 47.060 91.455,48.299 90.758,49.153 90.205 C 53.602 87.327,59.174 84.000,59.547 84.000 C 59.781 84.000,62.325 82.560,65.200 80.800 C 68.075 79.040,70.595 77.600,70.800 77.600 C 71.005 77.600,73.525 76.160,76.400 74.400 C 79.275 72.640,81.811 71.200,82.034 71.200 C 82.257 71.200,84.719 69.760,87.506 68.000 C 90.293 66.240,92.984 64.800,93.486 64.800 C 93.989 64.800,94.400 64.440,94.400 64.000 C 94.400 63.560,94.811 63.200,95.314 63.200 C 95.816 63.200,98.507 61.760,101.294 60.000 C 104.081 58.240,106.557 56.800,106.796 56.800 C 107.036 56.800,108.575 55.957,110.216 54.926 C 111.857 53.895,115.360 51.862,118.000 50.406 C 120.640 48.951,122.980 47.545,123.201 47.280 C 123.421 47.016,124.861 46.124,126.401 45.297 C 131.359 42.635,136.378 39.802,137.200 39.200 C 137.640 38.878,139.620 37.718,141.600 36.623 C 143.580 35.529,151.140 31.208,158.400 27.023 C 165.660 22.838,172.860 18.736,174.400 17.907 C 175.940 17.078,177.320 16.130,177.467 15.800 C 177.613 15.470,178.114 15.200,178.580 15.200 C 179.046 15.200,181.626 13.823,184.314 12.141 C 187.001 10.458,189.740 8.827,190.400 8.516 C 191.060 8.205,193.400 6.914,195.600 5.648 C 200.585 2.778,200.019 2.798,204.572 5.323 M194.000 70.086 C 190.920 72.050,187.680 74.010,186.800 74.442 C 185.920 74.874,183.400 76.298,181.200 77.606 C 179.000 78.915,175.670 80.772,173.800 81.734 C 171.930 82.696,170.400 83.780,170.400 84.142 C 170.400 84.504,170.012 84.800,169.538 84.800 C 168.672 84.800,149.898 95.402,138.800 102.157 C 137.920 102.693,136.480 103.497,135.600 103.943 C 134.720 104.389,132.200 105.840,130.000 107.167 C 127.800 108.493,125.460 109.825,124.800 110.125 C 124.140 110.426,121.786 111.817,119.570 113.217 C 115.859 115.561,111.928 117.809,102.400 123.038 C 100.420 124.125,98.440 125.278,98.000 125.601 C 97.560 125.924,95.040 127.362,92.400 128.797 C 89.760 130.231,86.968 131.957,86.195 132.631 C 84.874 133.784,84.803 137.789,84.995 200.298 L 85.200 266.739 88.400 268.860 C 91.175 270.699,95.191 273.014,103.200 277.390 C 104.300 277.991,106.640 279.372,108.400 280.459 C 110.160 281.546,112.500 282.871,113.600 283.402 C 114.700 283.933,115.780 284.555,116.000 284.784 C 116.563 285.369,119.371 287.106,120.800 287.753 C 121.460 288.052,124.256 289.670,127.014 291.348 C 129.772 293.027,132.173 294.400,132.349 294.400 C 132.525 294.400,136.389 296.605,140.935 299.299 C 145.481 301.994,151.000 305.187,153.200 306.394 C 158.591 309.354,175.303 318.989,176.800 320.000 C 177.460 320.445,178.531 321.058,179.181 321.360 C 179.830 321.662,184.843 324.563,190.321 327.805 L 200.280 333.701 202.940 332.269 C 204.403 331.481,205.600 330.600,205.600 330.311 C 205.600 330.023,206.230 329.584,207.000 329.336 C 207.770 329.088,210.200 327.791,212.400 326.453 C 214.600 325.115,216.931 323.767,217.581 323.456 C 218.230 323.145,223.205 320.260,228.635 317.045 C 234.066 313.830,238.659 311.200,238.841 311.200 C 239.023 311.200,241.525 309.760,244.400 308.000 C 247.275 306.240,249.795 304.800,250.000 304.800 C 250.205 304.800,252.725 303.360,255.600 301.600 C 258.475 299.840,261.006 298.400,261.223 298.400 C 261.440 298.400,265.403 296.060,270.030 293.200 C 274.657 290.340,278.561 288.000,278.706 288.000 C 278.852 288.000,282.011 286.250,285.727 284.112 C 289.443 281.974,294.625 279.040,297.242 277.592 C 299.859 276.145,302.180 274.745,302.400 274.480 C 303.049 273.701,308.958 270.449,312.200 269.087 C 317.740 266.759,314.861 263.752,299.200 255.514 C 296.780 254.241,294.620 253.005,294.400 252.766 C 294.045 252.380,279.364 243.956,270.800 239.223 C 269.040 238.250,265.980 236.446,264.000 235.213 C 258.197 231.600,257.336 231.560,252.196 234.668 C 249.668 236.197,245.790 238.472,243.578 239.724 C 237.496 243.166,222.317 251.900,219.600 253.521 C 199.185 265.698,201.388 265.232,191.428 259.476 C 187.123 256.989,181.980 254.049,180.000 252.944 C 178.020 251.839,175.320 250.277,174.000 249.474 C 172.680 248.671,171.060 247.767,170.400 247.465 C 169.740 247.164,169.020 246.710,168.800 246.458 C 168.580 246.206,166.960 245.300,165.200 244.445 C 163.440 243.590,160.920 242.116,159.600 241.170 C 158.280 240.223,156.819 239.303,156.353 239.124 C 152.782 237.757,144.837 232.237,144.470 230.868 C 143.889 228.705,143.883 171.316,144.464 169.155 C 144.863 167.670,147.838 165.569,156.000 161.010 C 157.540 160.150,160.960 158.239,163.600 156.764 C 166.240 155.289,168.580 153.883,168.800 153.641 C 169.286 153.105,171.805 151.678,176.259 149.416 C 178.096 148.483,180.500 147.114,181.600 146.374 C 182.700 145.634,185.220 144.133,187.200 143.038 C 189.180 141.943,192.894 139.864,195.453 138.417 C 200.836 135.375,199.001 134.870,213.982 143.507 C 219.252 146.546,224.652 149.644,225.982 150.393 C 230.815 153.113,243.634 160.412,244.955 161.196 C 245.701 161.638,247.861 162.849,249.755 163.888 C 251.650 164.926,253.380 166.036,253.600 166.356 C 255.362 168.915,264.022 167.050,265.467 163.800 C 265.613 163.470,266.199 163.200,266.769 163.200 C 267.338 163.200,268.252 162.660,268.800 162.000 C 270.323 160.165,269.232 160.546,264.616 163.464 C 257.680 167.847,257.559 167.828,245.600 160.412 C 235.369 154.067,201.525 135.200,200.376 135.200 C 199.605 135.200,193.575 138.294,186.976 142.076 C 180.377 145.858,173.791 149.618,172.341 150.433 C 170.891 151.248,168.248 152.833,166.468 153.957 C 164.688 155.081,163.051 156.000,162.830 156.000 C 162.490 156.000,154.339 160.722,150.400 163.201 C 149.740 163.616,148.026 164.549,146.591 165.273 C 143.038 167.068,143.127 166.061,143.377 201.511 L 143.600 233.022 151.200 237.409 C 155.380 239.821,164.740 245.230,172.000 249.427 C 203.925 267.886,198.944 266.688,212.104 259.075 C 217.547 255.926,223.260 252.644,224.800 251.782 C 226.340 250.919,231.740 247.778,236.800 244.800 C 241.860 241.822,247.440 238.589,249.200 237.614 C 250.960 236.639,253.505 235.168,254.856 234.345 C 257.621 232.659,259.685 233.502,274.000 242.169 C 274.880 242.701,276.140 243.395,276.800 243.709 C 277.460 244.024,280.160 245.602,282.800 247.216 C 286.957 249.759,300.836 257.718,309.600 262.586 C 314.899 265.530,314.954 265.922,310.452 268.692 C 308.210 270.071,306.184 271.200,305.950 271.200 C 305.715 271.200,303.650 272.388,301.362 273.840 C 299.073 275.292,294.680 277.897,291.600 279.629 C 288.520 281.362,285.399 283.144,284.666 283.589 C 283.932 284.035,282.312 284.971,281.066 285.669 C 279.819 286.367,275.380 288.924,271.200 291.352 C 267.020 293.780,253.700 301.453,241.600 308.402 C 229.500 315.352,218.340 321.828,216.800 322.793 C 215.260 323.758,212.020 325.647,209.600 326.991 C 207.180 328.335,204.030 330.102,202.600 330.918 C 200.188 332.293,199.841 332.308,197.800 331.123 C 196.590 330.421,190.610 326.911,184.512 323.323 C 178.414 319.736,173.317 316.800,173.187 316.800 C 173.056 316.800,169.405 314.697,165.074 312.126 C 160.743 309.555,146.040 301.051,132.400 293.228 C 118.760 285.405,107.240 278.737,106.800 278.409 C 106.360 278.082,104.200 276.827,102.000 275.621 C 99.800 274.415,95.210 271.760,91.800 269.722 L 85.600 266.017 85.606 200.008 L 85.613 134.000 94.532 128.800 C 99.438 125.940,104.745 122.877,106.326 121.994 C 107.907 121.110,111.360 119.077,114.000 117.475 C 116.640 115.873,120.196 113.787,121.901 112.838 C 129.056 108.859,154.194 94.435,167.200 86.846 C 191.608 72.603,199.708 68.000,200.361 68.000 C 200.904 68.000,210.719 73.609,214.400 76.023 C 215.060 76.456,216.140 77.049,216.800 77.341 C 217.460 77.633,219.897 79.071,222.216 80.536 C 224.534 82.001,226.598 83.200,226.801 83.200 C 227.005 83.200,229.525 84.640,232.400 86.400 C 235.275 88.160,237.795 89.600,238.000 89.600 C 238.205 89.600,240.646 90.992,243.426 92.694 C 246.206 94.395,251.343 97.417,254.840 99.410 C 258.338 101.402,266.556 106.130,273.102 109.916 C 279.648 113.702,285.172 116.800,285.378 116.800 C 285.584 116.800,286.709 117.471,287.877 118.292 C 289.044 119.112,291.620 120.648,293.600 121.705 C 299.433 124.818,314.401 133.952,314.392 134.394 C 314.386 134.727,298.593 144.002,286.456 150.800 C 277.913 155.585,270.369 160.236,270.668 160.535 C 270.855 160.722,272.221 160.141,273.704 159.244 C 275.187 158.347,276.940 157.367,277.600 157.065 C 278.260 156.764,280.060 155.738,281.600 154.786 C 283.140 153.833,286.200 152.055,288.400 150.833 C 300.326 144.210,312.571 137.074,313.800 136.032 C 316.541 133.707,316.310 133.492,303.200 126.196 C 301.660 125.339,299.832 124.134,299.137 123.519 C 298.442 122.903,297.645 122.400,297.365 122.400 C 297.086 122.400,293.334 120.364,289.028 117.876 C 284.723 115.389,279.580 112.453,277.600 111.353 C 275.620 110.254,272.746 108.509,271.214 107.477 C 269.682 106.445,268.159 105.600,267.830 105.600 C 267.501 105.600,265.261 104.340,262.854 102.800 C 260.447 101.260,258.286 100.000,258.053 100.000 C 257.819 100.000,255.372 98.620,252.614 96.933 C 248.195 94.230,242.348 90.879,236.000 87.410 C 234.900 86.809,232.560 85.428,230.800 84.341 C 229.040 83.254,226.700 81.929,225.600 81.398 C 224.500 80.867,223.420 80.217,223.200 79.954 C 222.980 79.690,221.720 78.921,220.400 78.244 C 215.826 75.899,203.594 68.638,202.337 67.522 C 200.592 65.972,200.322 66.054,194.000 70.086 " stroke="none" fill="#72c9e7" fill-rule="evenodd"></path><path id="path3" d="M196.594 3.131 C 193.213 5.298,192.868 5.981,196.000 4.304 C 197.540 3.480,199.520 2.570,200.400 2.282 L 202.000 1.759 200.400 1.738 C 199.520 1.727,197.807 2.353,196.594 3.131 M206.022 5.076 C 209.028 7.125,215.200 10.550,215.200 10.170 C 215.200 9.715,205.719 4.000,204.965 4.000 C 204.678 4.000,205.154 4.484,206.022 5.076 M186.600 8.884 C 184.290 10.230,182.400 11.517,182.400 11.742 C 182.400 12.186,189.515 8.230,190.760 7.094 C 192.116 5.856,190.884 6.386,186.600 8.884 M216.000 10.639 C 216.000 10.855,219.690 13.111,224.200 15.652 C 228.710 18.194,233.210 20.793,234.200 21.428 C 235.190 22.064,236.000 22.378,236.000 22.127 C 236.000 21.691,230.552 18.400,220.600 12.824 C 218.070 11.407,216.000 10.424,216.000 10.639 M177.401 14.154 C 175.311 15.317,173.726 16.393,173.879 16.546 C 174.201 16.867,181.600 12.828,181.600 12.332 C 181.600 11.830,181.485 11.880,177.401 14.154 M166.800 20.379 C 165.040 21.463,163.849 22.361,164.154 22.375 C 164.848 22.406,170.400 19.158,170.400 18.721 C 170.400 18.200,170.153 18.314,166.800 20.379 M159.793 24.299 C 155.950 26.662,154.877 27.777,158.000 26.163 C 160.508 24.866,163.891 22.451,163.200 22.450 C 162.980 22.450,161.447 23.282,159.793 24.299 M238.022 23.476 C 241.028 25.525,247.200 28.950,247.200 28.570 C 247.200 28.115,237.719 22.400,236.965 22.400 C 236.678 22.400,237.154 22.884,238.022 23.476 M150.600 29.624 C 148.290 30.948,146.400 32.239,146.400 32.492 C 146.400 32.972,153.436 29.102,154.760 27.894 C 156.118 26.654,154.881 27.168,150.600 29.624 M252.800 32.042 C 254.885 33.461,258.400 35.255,258.400 34.900 C 258.400 34.456,252.879 31.196,252.154 31.212 C 251.849 31.219,252.140 31.592,252.800 32.042 M139.400 36.084 C 137.090 37.430,135.200 38.717,135.200 38.942 C 135.200 39.386,142.315 35.430,143.560 34.294 C 144.916 33.056,143.684 33.586,139.400 36.084 M268.998 41.615 C 271.086 42.927,273.066 43.993,273.398 43.985 C 273.729 43.976,272.291 42.896,270.202 41.585 C 268.114 40.273,266.134 39.207,265.802 39.215 C 265.471 39.224,266.909 40.304,268.998 41.615 M280.000 48.000 C 281.980 49.316,283.960 50.388,284.400 50.381 C 284.840 50.375,283.491 49.296,281.402 47.985 C 276.459 44.880,275.326 44.893,280.000 48.000 M113.394 51.131 C 110.196 53.181,109.606 54.013,112.400 52.531 C 115.752 50.754,117.343 49.616,116.400 49.671 C 115.960 49.696,114.607 50.353,113.394 51.131 M286.800 51.590 C 288.609 53.100,295.235 56.601,294.000 55.394 C 293.560 54.964,291.400 53.632,289.200 52.433 C 287.000 51.235,285.920 50.855,286.800 51.590 M103.400 56.884 C 101.090 58.230,99.200 59.517,99.200 59.742 C 99.200 60.186,106.315 56.230,107.560 55.094 C 108.916 53.856,107.684 54.386,103.400 56.884 M295.200 56.270 C 295.200 56.615,297.955 58.288,305.600 62.584 C 308.239 64.067,308.293 64.070,306.542 62.632 C 304.388 60.863,295.200 55.709,295.200 56.270 M92.200 63.284 C 89.890 64.630,88.000 65.917,88.000 66.142 C 88.000 66.586,95.115 62.630,96.360 61.494 C 97.716 60.256,96.484 60.786,92.200 63.284 M308.867 64.296 C 309.980 65.283,320.276 71.191,320.497 70.970 C 320.802 70.665,309.862 64.000,309.056 64.000 C 308.769 64.000,308.683 64.133,308.867 64.296 M81.000 69.684 C 78.690 71.030,76.800 72.290,76.800 72.482 C 76.800 72.967,82.445 70.000,84.400 68.488 C 86.911 66.546,85.577 67.016,81.000 69.684 M200.540 68.803 C 201.497 69.188,203.739 70.426,205.524 71.552 C 207.308 72.678,209.045 73.592,209.384 73.582 C 209.723 73.572,208.020 72.320,205.600 70.800 C 203.180 69.280,200.660 68.051,200.000 68.069 C 199.307 68.088,199.536 68.398,200.540 68.803 M189.026 74.170 C 186.290 75.792,184.173 77.240,184.321 77.388 C 184.623 77.690,194.400 71.985,194.400 71.506 C 194.400 71.004,194.203 71.101,189.026 74.170 M321.600 71.430 C 321.600 71.885,331.081 77.600,331.835 77.600 C 332.515 77.600,330.128 75.986,325.400 73.248 C 323.310 72.038,321.600 71.220,321.600 71.430 M178.600 80.084 C 176.290 81.430,174.400 82.717,174.400 82.942 C 174.400 83.386,181.515 79.430,182.760 78.294 C 184.116 77.056,182.884 77.586,178.600 80.084 M216.800 77.921 C 216.800 78.470,222.582 81.684,222.935 81.332 C 223.118 81.148,221.972 80.234,220.388 79.299 C 217.497 77.593,216.800 77.326,216.800 77.921 M335.200 79.521 C 335.200 79.938,340.725 83.200,341.431 83.200 C 341.728 83.200,340.647 82.300,339.028 81.200 C 336.194 79.274,335.200 78.838,335.200 79.521 M53.714 85.615 C 49.373 88.467,48.443 89.402,51.600 87.740 C 55.034 85.932,58.942 83.200,58.000 83.267 C 57.560 83.299,55.631 84.355,53.714 85.615 M227.622 84.276 C 230.628 86.325,236.800 89.750,236.800 89.370 C 236.800 88.915,227.319 83.200,226.565 83.200 C 226.278 83.200,226.754 83.684,227.622 84.276 M164.226 88.570 C 161.490 90.192,159.373 91.640,159.521 91.788 C 159.823 92.090,169.600 86.385,169.600 85.906 C 169.600 85.404,169.403 85.501,164.226 88.570 M346.800 86.162 C 347.240 86.616,349.400 87.994,351.600 89.225 C 353.800 90.456,355.240 91.092,354.800 90.638 C 354.360 90.184,352.200 88.806,350.000 87.575 C 347.800 86.344,346.360 85.708,346.800 86.162 M44.000 91.200 C 39.326 94.307,40.459 94.320,45.402 91.215 C 47.491 89.904,48.840 88.825,48.400 88.819 C 47.960 88.812,45.980 89.884,44.000 91.200 M239.600 91.245 C 242.547 93.252,248.000 96.150,248.000 95.710 C 248.000 95.285,238.445 89.598,237.743 89.605 C 237.444 89.608,238.280 90.346,239.600 91.245 M143.814 100.270 C 138.212 103.479,133.352 106.409,133.014 106.780 C 132.232 107.641,132.101 107.710,144.200 100.844 C 152.825 95.950,155.368 94.315,154.200 94.418 C 154.090 94.427,149.417 97.061,143.814 100.270 M361.600 94.675 C 361.600 94.899,363.582 96.217,366.005 97.603 C 368.427 98.989,370.767 100.792,371.205 101.609 C 371.719 102.570,372.000 137.448,372.000 200.409 L 372.000 297.723 369.662 300.062 C 367.010 302.713,367.408 303.127,370.400 300.828 L 372.400 299.291 372.400 199.989 C 372.400 112.578,372.256 100.600,371.200 99.960 C 365.137 96.282,361.600 94.335,361.600 94.675 M33.065 97.451 C 28.618 100.317,27.567 101.568,31.600 99.195 C 36.320 96.418,38.053 95.194,37.178 95.251 C 36.750 95.280,34.899 96.270,33.065 97.451 M252.800 98.705 C 252.800 99.306,258.590 102.477,258.978 102.088 C 259.186 101.881,257.880 100.959,256.078 100.040 C 254.275 99.120,252.800 98.519,252.800 98.705 M28.388 200.000 C 28.388 254.340,28.483 276.570,28.600 249.400 C 28.717 222.230,28.717 177.770,28.600 150.600 C 28.483 123.430,28.388 145.660,28.388 200.000 M264.000 105.030 C 264.000 105.485,273.481 111.200,274.235 111.200 C 274.915 111.200,272.528 109.586,267.800 106.848 C 265.710 105.638,264.000 104.820,264.000 105.030 M127.400 109.684 C 125.090 111.030,123.200 112.317,123.200 112.542 C 123.200 112.986,130.315 109.030,131.560 107.894 C 132.916 106.656,131.684 107.186,127.400 109.684 M275.200 111.470 C 275.200 112.011,280.948 115.319,281.292 114.975 C 281.451 114.815,280.146 113.878,278.391 112.891 C 276.636 111.905,275.200 111.265,275.200 111.470 M116.986 115.544 C 114.669 116.983,112.509 118.458,112.186 118.821 C 111.468 119.630,120.896 114.508,121.960 113.512 C 123.592 111.983,121.045 113.024,116.986 115.544 M289.470 120.007 C 292.258 121.833,294.704 123.162,294.906 122.961 C 295.108 122.759,293.186 121.380,290.636 119.897 C 284.060 116.073,283.538 116.122,289.470 120.007 M104.000 123.236 C 102.020 124.520,100.671 125.577,101.002 125.585 C 101.334 125.593,103.314 124.527,105.402 123.215 C 107.491 121.904,108.840 120.847,108.400 120.867 C 107.960 120.886,105.980 121.953,104.000 123.236 M296.000 123.506 C 296.000 123.922,305.574 129.602,306.257 129.592 C 306.556 129.588,304.536 128.148,301.768 126.392 C 296.903 123.306,296.000 122.854,296.000 123.506 M90.617 131.034 L 85.633 134.000 85.812 200.400 L 85.991 266.800 86.200 200.655 L 86.409 134.510 91.205 131.597 C 93.842 129.995,96.000 128.530,96.000 128.342 C 96.000 127.831,95.986 127.838,90.617 131.034 M311.949 133.132 C 313.216 134.666,313.093 134.817,308.600 137.250 C 307.390 137.905,306.400 138.633,306.400 138.867 C 306.400 139.101,308.200 138.282,310.399 137.046 C 314.977 134.475,315.029 134.376,312.600 132.864 C 310.928 131.822,310.882 131.842,311.949 133.132 M192.253 138.231 C 188.652 140.319,185.412 142.347,185.053 142.736 C 184.694 143.126,186.740 142.111,189.600 140.480 C 199.312 134.943,199.788 134.772,202.632 135.813 C 204.958 136.663,205.054 136.641,203.647 135.576 C 201.196 133.720,199.252 134.172,192.253 138.231 M206.000 137.352 C 207.320 138.683,233.602 153.549,233.579 152.952 C 233.568 152.648,229.518 150.141,224.579 147.380 C 219.641 144.619,213.260 141.052,210.400 139.452 C 207.540 137.853,205.560 136.908,206.000 137.352 M300.186 141.944 C 294.239 145.637,293.907 146.355,299.600 143.211 C 304.689 140.400,306.441 139.156,305.160 139.264 C 304.742 139.299,302.504 140.505,300.186 141.944 M175.200 148.036 C 173.220 149.320,171.871 150.377,172.202 150.385 C 172.534 150.393,174.514 149.327,176.602 148.015 C 178.691 146.704,180.040 145.647,179.600 145.667 C 179.160 145.686,177.180 146.753,175.200 148.036 M286.562 149.762 C 285.112 150.658,284.076 151.543,284.261 151.728 C 284.616 152.083,290.400 148.873,290.400 148.321 C 290.400 147.691,289.161 148.156,286.562 149.762 M164.823 154.039 C 163.295 155.118,162.284 156.000,162.577 156.000 C 163.277 156.000,168.800 152.735,168.800 152.321 C 168.800 151.601,167.451 152.184,164.823 154.039 M274.160 157.202 C 271.608 158.741,269.222 160.000,268.858 160.000 C 268.494 160.000,267.719 160.575,267.136 161.277 C 266.400 162.165,267.042 162.014,269.238 160.786 C 275.648 157.201,279.200 155.040,279.200 154.724 C 279.200 154.188,278.977 154.298,274.160 157.202 M248.998 162.415 C 251.086 163.727,253.066 164.793,253.398 164.785 C 253.729 164.776,252.291 163.696,250.202 162.385 C 248.114 161.073,246.134 160.007,245.802 160.015 C 245.471 160.024,246.909 161.104,248.998 162.415 M261.762 164.162 C 260.312 165.058,259.276 165.943,259.461 166.128 C 259.816 166.483,265.600 163.273,265.600 162.721 C 265.600 162.091,264.361 162.556,261.762 164.162 M142.765 200.400 C 142.765 218.000,142.870 225.086,142.999 216.147 C 143.128 207.207,143.128 192.807,142.999 184.147 C 142.870 175.486,142.764 182.800,142.765 200.400 M250.000 237.078 C 240.848 242.350,239.157 243.423,239.486 243.753 C 239.696 243.963,241.884 242.844,244.349 241.267 C 246.814 239.690,249.140 238.400,249.518 238.400 C 249.895 238.400,250.652 237.860,251.200 237.200 C 252.343 235.823,252.205 235.809,250.000 237.078 M263.200 236.270 C 263.200 236.811,268.948 240.119,269.292 239.775 C 269.451 239.615,268.146 238.678,266.391 237.691 C 264.636 236.705,263.200 236.065,263.200 236.270 M270.802 240.804 C 271.039 241.186,272.311 242.037,273.629 242.695 C 274.948 243.353,275.834 243.578,275.598 243.196 C 275.361 242.814,274.089 241.963,272.771 241.305 C 271.452 240.647,270.566 240.422,270.802 240.804 M162.400 244.230 C 162.400 244.685,171.881 250.400,172.635 250.400 C 173.315 250.400,170.928 248.786,166.200 246.048 C 164.110 244.838,162.400 244.020,162.400 244.230 M233.026 246.970 C 230.290 248.592,228.173 250.040,228.321 250.188 C 228.623 250.490,238.400 244.785,238.400 244.306 C 238.400 243.804,238.203 243.901,233.026 246.970 M281.369 247.217 C 284.103 248.968,286.623 250.392,286.969 250.383 C 287.316 250.374,285.364 248.934,282.631 247.183 C 279.897 245.432,277.377 244.008,277.031 244.017 C 276.684 244.026,278.636 245.466,281.369 247.217 M173.600 250.630 C 173.600 251.085,183.081 256.800,183.835 256.800 C 184.515 256.800,182.128 255.186,177.400 252.448 C 175.310 251.238,173.600 250.420,173.600 250.630 M288.000 250.685 C 288.000 250.990,298.430 257.131,309.600 263.403 C 311.140 264.268,312.713 265.164,313.096 265.395 C 313.480 265.625,311.860 267.017,309.496 268.489 C 307.133 269.960,305.465 271.172,305.788 271.182 C 306.111 271.192,308.234 270.056,310.506 268.659 L 314.636 266.118 312.318 264.263 C 311.043 263.243,309.736 262.406,309.414 262.404 C 309.092 262.402,306.572 261.030,303.814 259.356 C 296.591 254.972,288.000 250.261,288.000 250.685 M221.394 253.531 C 218.196 255.581,217.606 256.413,220.400 254.931 C 223.752 253.154,225.343 252.016,224.400 252.071 C 223.960 252.096,222.607 252.753,221.394 253.531 M188.800 259.404 C 188.800 259.844,196.711 264.800,197.413 264.800 C 197.692 264.800,197.578 264.488,197.160 264.106 C 196.001 263.049,188.800 258.999,188.800 259.404 M207.357 261.708 C 205.024 263.068,203.275 264.341,203.470 264.537 C 203.839 264.906,212.000 260.117,212.000 259.531 C 212.000 259.017,211.867 259.080,207.357 261.708 M95.200 271.470 C 95.200 272.011,100.948 275.319,101.292 274.975 C 101.451 274.815,100.146 273.878,98.391 272.891 C 96.636 271.905,95.200 271.265,95.200 271.470 M299.376 274.291 C 294.990 276.989,291.699 279.414,294.000 278.253 C 296.078 277.204,304.800 271.739,304.800 271.486 C 304.800 270.985,304.496 271.142,299.376 274.291 M106.022 277.876 C 109.028 279.925,115.200 283.350,115.200 282.970 C 115.200 282.515,105.719 276.800,104.965 276.800 C 104.678 276.800,105.154 277.284,106.022 277.876 M288.000 280.800 C 283.326 283.907,284.459 283.920,289.402 280.815 C 291.491 279.504,292.840 278.425,292.400 278.419 C 291.960 278.412,289.980 279.484,288.000 280.800 M281.733 284.386 C 278.729 286.041,277.758 287.398,280.587 285.986 C 282.007 285.278,283.377 284.361,283.631 283.949 C 284.184 283.055,284.123 283.069,281.733 284.386 M119.200 285.642 C 121.285 287.061,124.800 288.855,124.800 288.500 C 124.800 288.056,119.279 284.796,118.554 284.812 C 118.249 284.819,118.540 285.192,119.200 285.642 M274.194 288.731 C 270.569 291.055,270.572 291.512,274.200 289.682 C 276.070 288.739,277.600 287.795,277.600 287.584 C 277.600 286.899,276.446 287.288,274.194 288.731 M130.400 292.042 C 132.485 293.461,136.000 295.255,136.000 294.900 C 136.000 294.456,130.479 291.196,129.754 291.212 C 129.449 291.219,129.740 291.592,130.400 292.042 M262.982 295.150 C 257.752 298.363,253.649 301.283,256.400 299.835 C 260.284 297.791,270.400 291.790,270.400 291.530 C 270.400 290.783,268.896 291.517,262.982 295.150 M141.600 298.442 C 143.685 299.861,147.200 301.655,147.200 301.300 C 147.200 300.856,141.679 297.596,140.954 297.612 C 140.649 297.619,140.940 297.992,141.600 298.442 M29.600 300.175 C 30.943 301.583,40.000 306.782,40.000 306.145 C 40.000 305.920,38.470 304.878,36.600 303.828 C 34.730 302.778,32.120 301.243,30.800 300.417 C 29.115 299.363,28.757 299.291,29.600 300.175 M250.514 302.415 C 245.561 305.670,245.306 306.275,250.000 303.636 C 254.351 301.190,255.987 299.962,254.760 300.062 C 254.342 300.096,252.431 301.155,250.514 302.415 M148.000 301.959 C 148.000 302.179,149.080 302.917,150.400 303.600 C 151.720 304.283,152.800 304.661,152.800 304.441 C 152.800 304.221,151.720 303.483,150.400 302.800 C 149.080 302.117,148.000 301.739,148.000 301.959 M154.000 305.362 C 154.440 305.816,156.600 307.194,158.800 308.425 C 161.000 309.656,162.440 310.292,162.000 309.838 C 161.560 309.384,159.400 308.006,157.200 306.775 C 155.000 305.544,153.560 304.908,154.000 305.362 M357.800 307.284 C 355.490 308.630,353.600 309.917,353.600 310.142 C 353.600 310.586,360.715 306.630,361.960 305.494 C 363.316 304.256,362.084 304.786,357.800 307.284 M240.186 308.344 C 234.637 311.790,233.721 312.896,238.800 310.018 C 243.907 307.124,246.164 305.583,245.178 305.664 C 244.750 305.699,242.504 306.905,240.186 308.344 M40.800 306.678 C 40.800 307.221,48.074 311.393,48.419 311.048 C 48.580 310.887,46.932 309.754,44.756 308.531 C 42.580 307.308,40.800 306.474,40.800 306.678 M163.200 310.690 C 163.200 311.115,172.755 316.802,173.457 316.795 C 173.756 316.792,172.920 316.054,171.600 315.155 C 168.653 313.148,163.200 310.250,163.200 310.690 M346.557 313.708 C 344.224 315.068,342.468 316.334,342.655 316.521 C 342.992 316.859,351.200 312.017,351.200 311.480 C 351.200 311.024,350.989 311.125,346.557 313.708 M226.994 315.931 C 223.796 317.981,223.206 318.813,226.000 317.331 C 229.352 315.554,230.943 314.416,230.000 314.471 C 229.560 314.496,228.207 315.153,226.994 315.931 M335.200 320.400 C 332.780 321.920,331.065 323.172,331.388 323.182 C 332.109 323.204,340.000 318.393,340.000 317.931 C 340.000 317.404,339.832 317.491,335.200 320.400 M177.600 319.242 C 179.685 320.661,183.200 322.455,183.200 322.100 C 183.200 321.656,177.679 318.396,176.954 318.412 C 176.649 318.419,176.940 318.792,177.600 319.242 M65.600 321.107 C 65.600 321.464,74.220 326.603,75.600 327.069 C 76.040 327.217,75.320 326.570,74.000 325.630 C 71.180 323.622,65.600 320.617,65.600 321.107 M212.000 324.836 C 210.020 326.120,208.671 327.177,209.002 327.185 C 209.334 327.193,211.314 326.127,213.402 324.815 C 215.491 323.504,216.840 322.447,216.400 322.467 C 215.960 322.486,213.980 323.553,212.000 324.836 M188.000 325.074 C 188.000 325.586,199.145 332.000,200.033 332.000 C 201.064 332.000,208.000 328.037,208.000 327.448 C 208.000 327.228,206.406 327.982,204.458 329.124 C 199.914 331.787,199.899 331.785,193.906 328.000 C 189.130 324.984,188.000 324.424,188.000 325.074 M80.800 329.870 C 80.800 330.411,86.548 333.719,86.892 333.375 C 87.051 333.215,85.746 332.278,83.991 331.291 C 82.236 330.305,80.800 329.665,80.800 329.870 M304.400 338.087 C 297.800 341.872,292.040 345.343,291.600 345.801 C 290.521 346.925,290.492 346.941,304.600 338.844 C 315.062 332.841,317.659 331.187,316.600 331.203 C 316.490 331.205,311.000 334.303,304.400 338.087 M92.000 336.359 C 92.000 336.579,93.080 337.317,94.400 338.000 C 95.720 338.683,96.800 339.061,96.800 338.841 C 96.800 338.621,95.720 337.883,94.400 337.200 C 93.080 336.517,92.000 336.139,92.000 336.359 M107.200 345.159 C 107.200 345.379,108.280 346.117,109.600 346.800 C 110.920 347.483,112.000 347.861,112.000 347.641 C 112.000 347.421,110.920 346.683,109.600 346.000 C 108.280 345.317,107.200 344.939,107.200 345.159 M286.800 348.379 C 285.040 349.463,283.849 350.361,284.154 350.375 C 284.848 350.406,290.400 347.158,290.400 346.721 C 290.400 346.200,290.153 346.314,286.800 348.379 M117.600 351.242 C 119.685 352.661,123.200 354.455,123.200 354.100 C 123.200 353.656,117.679 350.396,116.954 350.412 C 116.649 350.419,116.940 350.792,117.600 351.242 M124.000 354.630 C 124.000 355.085,133.481 360.800,134.235 360.800 C 134.915 360.800,132.528 359.186,127.800 356.448 C 125.710 355.238,124.000 354.420,124.000 354.630 M239.452 375.502 C 225.963 383.348,218.886 387.832,224.800 384.787 C 227.919 383.180,253.012 368.697,254.778 367.484 C 259.595 364.175,252.931 367.662,239.452 375.502 M164.400 378.162 C 164.840 378.616,167.000 379.994,169.200 381.225 C 171.400 382.456,172.840 383.092,172.400 382.638 C 171.960 382.184,169.800 380.806,167.600 379.575 C 165.400 378.344,163.960 377.708,164.400 378.162 M175.600 384.562 C 176.040 385.016,178.200 386.394,180.400 387.625 C 182.600 388.856,184.040 389.492,183.600 389.038 C 183.160 388.584,181.000 387.206,178.800 385.975 C 176.600 384.744,175.160 384.108,175.600 384.562 M214.925 389.693 C 213.233 390.586,212.018 391.484,212.224 391.690 C 212.604 392.071,218.400 388.909,218.400 388.321 C 218.400 387.867,218.341 387.891,214.925 389.693 M204.181 396.003 C 201.337 397.737,198.783 398.066,198.000 396.800 C 197.728 396.360,197.098 396.000,196.600 396.000 C 195.147 396.000,198.660 398.346,200.154 398.375 C 201.434 398.399,207.200 395.409,207.200 394.721 C 207.200 394.209,206.947 394.316,204.181 396.003 " stroke="none" fill="#a6ddf0" fill-rule="evenodd"></path><path id="path4" d="M196.360 2.302 C 195.942 2.689,193.440 4.185,190.800 5.628 C 188.160 7.072,184.657 9.095,183.016 10.126 C 181.375 11.157,179.851 12.000,179.630 12.000 C 179.409 12.000,176.875 13.440,174.000 15.200 C 171.125 16.960,168.589 18.400,168.366 18.400 C 168.143 18.400,165.681 19.840,162.894 21.600 C 160.107 23.360,157.416 24.800,156.914 24.800 C 156.411 24.800,156.000 25.160,156.000 25.600 C 156.000 26.040,155.669 26.400,155.264 26.400 C 154.049 26.400,145.633 31.545,145.616 32.298 C 145.607 32.682,146.050 32.629,146.600 32.181 C 147.604 31.363,162.357 22.809,185.800 9.451 C 192.730 5.502,198.400 2.121,198.400 1.936 C 198.400 1.349,197.148 1.574,196.360 2.302 M201.667 1.914 C 201.850 2.087,203.260 2.934,204.800 3.798 C 216.098 10.132,231.317 18.897,233.873 20.542 C 235.564 21.630,237.099 22.368,237.284 22.183 C 237.598 21.869,225.995 14.400,225.193 14.400 C 224.992 14.400,222.551 13.006,219.768 11.303 C 216.985 9.599,213.918 7.955,212.954 7.649 C 211.989 7.343,211.200 6.756,211.200 6.346 C 211.200 5.936,210.833 5.600,210.384 5.600 C 209.935 5.600,208.143 4.700,206.400 3.600 C 203.793 1.955,200.443 0.761,201.667 1.914 M238.400 22.706 C 238.400 23.236,248.194 28.873,248.530 28.537 C 248.706 28.361,246.653 26.908,243.968 25.308 C 239.177 22.454,238.400 22.091,238.400 22.706 M249.905 29.446 C 250.602 30.574,255.200 32.850,255.200 32.067 C 255.200 31.552,253.470 30.488,250.089 28.922 C 249.697 28.741,249.615 28.976,249.905 29.446 M140.400 34.820 L 138.000 36.831 141.200 35.071 C 145.239 32.849,145.300 32.799,143.933 32.804 C 143.310 32.806,141.720 33.713,140.400 34.820 M260.569 36.017 C 265.862 39.407,267.208 39.937,265.600 38.000 C 265.052 37.340,264.269 36.800,263.860 36.800 C 263.450 36.800,261.791 35.900,260.172 34.800 C 258.553 33.700,256.862 32.808,256.414 32.817 C 255.966 32.826,257.836 34.266,260.569 36.017 M131.200 40.000 C 131.200 40.440,130.704 40.800,130.098 40.800 C 129.492 40.800,128.548 41.340,128.000 42.000 C 127.312 42.829,127.282 43.200,127.902 43.200 C 128.396 43.200,128.800 42.840,128.800 42.400 C 128.800 41.960,129.250 41.589,129.800 41.575 C 131.509 41.531,134.212 39.200,132.553 39.200 C 131.809 39.200,131.200 39.560,131.200 40.000 M267.200 39.524 C 267.200 39.837,270.758 42.005,277.000 45.495 C 278.650 46.418,280.000 46.901,280.000 46.568 C 280.000 46.236,278.650 45.262,277.000 44.405 C 275.350 43.547,272.657 42.025,271.016 41.023 C 268.080 39.229,267.200 38.884,267.200 39.524 M122.400 45.200 C 120.860 46.249,119.194 47.129,118.698 47.154 C 117.804 47.200,115.397 49.600,116.245 49.600 C 116.866 49.600,126.400 43.879,126.400 43.506 C 126.400 42.822,125.053 43.392,122.400 45.200 M280.867 47.514 C 281.050 47.686,284.800 49.882,289.200 52.393 C 293.600 54.904,298.370 57.631,299.800 58.452 C 301.230 59.274,302.398 59.688,302.395 59.373 C 302.389 58.751,300.388 57.536,291.200 52.577 C 287.900 50.796,284.490 48.858,283.622 48.270 C 282.218 47.318,280.018 46.715,280.867 47.514 M113.160 50.302 C 112.742 50.689,110.240 52.188,107.600 53.634 C 104.960 55.080,101.720 56.905,100.400 57.690 C 99.080 58.475,96.470 59.919,94.600 60.900 C 92.730 61.881,91.200 62.960,91.200 63.298 C 91.200 63.636,93.450 62.633,96.200 61.069 C 98.950 59.505,104.350 56.442,108.200 54.262 C 112.050 52.082,115.200 50.141,115.200 49.949 C 115.200 49.351,113.956 49.566,113.160 50.302 M305.877 62.071 C 307.553 63.210,309.095 63.971,309.304 63.762 C 309.730 63.337,304.600 60.000,303.520 60.000 C 303.140 60.000,304.200 60.932,305.877 62.071 M86.800 65.446 C 85.480 66.191,82.580 67.923,80.356 69.297 C 78.132 70.670,75.522 72.044,74.556 72.350 C 73.590 72.657,72.800 73.274,72.800 73.721 C 72.800 74.168,73.070 74.413,73.400 74.267 C 74.025 73.989,84.223 68.017,88.400 65.483 C 91.421 63.650,90.039 63.618,86.800 65.446 M316.400 68.043 C 320.142 70.588,323.200 72.103,323.200 71.410 C 323.200 70.782,320.859 69.345,318.200 68.342 C 317.430 68.051,316.800 67.495,316.800 67.107 C 316.800 66.718,316.170 66.402,315.400 66.405 C 314.390 66.409,314.669 66.866,316.400 68.043 M194.000 71.922 C 191.360 73.578,187.220 76.038,184.800 77.388 C 176.280 82.142,170.767 85.327,167.600 87.326 C 165.840 88.437,162.780 90.249,160.800 91.353 C 156.171 93.934,127.466 110.436,114.000 118.258 C 108.280 121.580,102.793 124.681,101.806 125.149 C 100.820 125.617,100.010 126.270,100.006 126.600 C 100.003 126.930,99.550 127.202,99.000 127.203 C 98.450 127.205,96.380 128.284,94.400 129.600 C 92.344 130.967,91.380 131.995,92.153 131.997 C 92.897 131.998,93.722 131.650,93.987 131.221 C 94.251 130.793,95.803 129.817,97.434 129.052 C 99.065 128.287,100.876 127.197,101.457 126.630 C 102.039 126.064,103.029 125.600,103.657 125.600 C 104.286 125.600,104.800 125.282,104.800 124.893 C 104.800 124.505,105.430 123.975,106.200 123.717 C 106.970 123.458,108.306 122.786,109.170 122.223 C 111.568 120.660,115.898 118.130,121.200 115.195 C 123.840 113.733,127.620 111.639,129.600 110.541 C 133.640 108.302,138.077 105.701,140.430 104.195 C 141.294 103.642,142.540 102.948,143.200 102.653 C 143.860 102.358,144.580 101.910,144.800 101.658 C 145.020 101.406,146.640 100.483,148.400 99.608 C 150.160 98.732,151.780 97.832,152.000 97.608 C 152.583 97.013,155.353 95.316,157.200 94.421 C 158.080 93.994,160.600 92.552,162.800 91.215 C 165.000 89.878,167.430 88.566,168.200 88.299 C 168.970 88.032,169.600 87.495,169.600 87.107 C 169.600 86.718,170.331 86.400,171.225 86.400 C 172.119 86.400,173.057 85.860,173.311 85.200 C 173.564 84.540,174.329 84.000,175.010 84.000 C 175.691 84.000,177.363 83.181,178.724 82.179 C 180.086 81.177,182.640 79.647,184.400 78.779 C 186.160 77.911,187.780 77.020,188.000 76.800 C 188.593 76.207,191.427 74.467,192.800 73.853 C 193.460 73.558,195.395 72.448,197.099 71.386 C 202.495 68.023,202.414 67.570,202.619 102.248 C 202.778 129.085,202.653 132.800,201.588 132.800 C 200.560 132.800,197.369 134.285,188.717 138.790 C 187.883 139.224,187.200 139.854,187.200 140.190 C 187.200 140.525,186.686 140.800,186.057 140.800 C 185.429 140.800,184.439 141.270,183.857 141.845 C 183.276 142.419,182.260 143.128,181.600 143.419 C 180.940 143.710,178.600 145.031,176.400 146.355 C 174.200 147.678,171.057 149.392,169.416 150.163 C 167.774 150.933,166.262 152.005,166.055 152.544 C 165.690 153.497,170.121 151.278,176.184 147.473 C 177.825 146.443,179.311 145.600,179.486 145.600 C 179.660 145.600,184.077 143.081,189.302 140.003 C 200.232 133.562,200.163 133.575,206.090 136.921 C 209.782 139.004,210.695 139.247,211.354 138.321 C 211.989 137.427,212.063 137.474,211.719 138.553 C 211.197 140.187,230.542 151.672,232.205 150.716 C 232.752 150.401,232.947 150.424,232.638 150.767 C 232.071 151.396,233.797 153.600,234.856 153.600 C 235.170 153.600,237.707 155.040,240.494 156.800 C 243.281 158.560,245.743 160.000,245.966 160.000 C 246.189 160.000,248.725 161.440,251.600 163.200 C 257.722 166.947,257.555 166.923,261.446 164.600 C 263.104 163.610,265.167 162.392,266.030 161.894 C 266.894 161.396,267.520 160.316,267.423 159.494 C 267.326 158.672,267.446 158.450,267.690 159.000 C 268.344 160.475,268.901 160.305,274.899 156.800 C 277.910 155.040,279.750 153.600,278.987 153.600 C 278.224 153.600,277.600 153.240,277.600 152.800 C 277.600 151.770,279.756 151.757,280.390 152.783 C 280.672 153.241,282.006 152.825,283.597 151.783 C 285.840 150.315,286.081 149.909,284.961 149.486 C 283.714 149.015,283.724 148.921,285.081 148.369 C 285.895 148.038,286.795 148.126,287.081 148.564 C 287.401 149.056,288.518 148.798,290.000 147.889 C 291.320 147.080,292.940 146.167,293.600 145.861 C 294.260 145.554,296.960 144.013,299.600 142.436 C 302.240 140.859,305.683 138.900,307.250 138.083 C 314.320 134.399,314.273 134.081,306.000 129.567 C 303.360 128.126,299.857 126.105,298.216 125.074 C 296.575 124.043,295.027 123.200,294.777 123.200 C 294.528 123.200,292.437 121.993,290.131 120.518 C 287.825 119.043,283.793 116.644,281.170 115.187 C 278.546 113.730,274.780 111.639,272.800 110.541 C 270.820 109.444,267.940 107.767,266.400 106.814 C 264.860 105.862,263.060 104.836,262.400 104.535 C 261.740 104.233,260.120 103.325,258.800 102.517 C 256.098 100.863,242.819 93.126,235.723 89.072 C 233.151 87.603,230.631 86.638,230.123 86.928 C 229.616 87.219,229.468 87.161,229.795 86.800 C 230.619 85.891,227.412 83.775,226.275 84.477 C 225.754 84.800,225.568 84.698,225.849 84.244 C 226.122 83.803,225.368 82.944,224.173 82.337 C 222.978 81.730,219.214 79.516,215.809 77.417 C 212.404 75.317,209.439 73.600,209.221 73.600 C 209.003 73.600,207.069 72.520,204.924 71.200 C 200.085 68.223,199.877 68.237,194.000 71.922 M327.200 74.197 C 333.260 78.140,338.791 81.034,337.660 79.672 C 337.079 78.973,336.295 78.400,335.918 78.400 C 335.540 78.400,333.243 77.128,330.813 75.574 C 328.384 74.020,325.767 72.547,324.998 72.302 C 324.229 72.056,325.220 72.909,327.200 74.197 M69.600 75.600 C 69.044 76.269,68.958 76.800,69.404 76.800 C 69.844 76.800,70.652 76.260,71.200 75.600 C 71.756 74.931,71.842 74.400,71.396 74.400 C 70.956 74.400,70.148 74.940,69.600 75.600 M60.800 80.800 C 56.126 83.907,57.259 83.920,62.202 80.815 C 64.291 79.504,65.640 78.425,65.200 78.419 C 64.760 78.412,62.780 79.484,60.800 80.800 M339.200 81.124 C 339.200 81.419,342.516 83.365,364.934 96.230 C 369.322 98.748,372.035 100.831,372.323 101.904 C 373.079 104.721,372.857 296.545,372.096 298.548 C 371.708 299.567,369.998 301.154,368.296 302.074 C 358.664 307.280,346.384 314.651,346.744 315.011 C 346.973 315.240,347.620 315.065,348.181 314.621 C 348.741 314.177,350.905 312.876,352.989 311.729 C 364.849 305.202,370.196 302.029,371.800 300.565 L 373.600 298.921 373.600 200.000 L 373.600 101.079 371.800 99.466 C 370.810 98.579,367.480 96.451,364.400 94.737 C 361.320 93.023,358.199 91.256,357.466 90.811 C 356.120 89.993,355.522 89.659,346.800 84.851 C 344.160 83.396,341.658 81.889,341.240 81.502 C 340.459 80.780,339.200 80.547,339.200 81.124 M50.566 86.513 C 49.118 87.441,48.083 88.349,48.266 88.532 C 48.618 88.884,54.400 85.669,54.400 85.121 C 54.400 84.424,53.080 84.904,50.566 86.513 M41.338 91.735 C 38.774 93.279,36.853 94.720,37.069 94.935 C 37.284 95.151,39.742 93.866,42.530 92.080 C 48.728 88.111,47.799 87.842,41.338 91.735 M28.939 99.452 L 27.200 101.303 27.200 200.099 C 27.200 278.581,27.408 299.179,28.214 300.280 C 29.228 301.668,30.422 302.440,36.400 305.579 C 38.160 306.503,41.189 308.146,43.131 309.232 C 45.073 310.317,46.783 311.084,46.931 310.936 C 47.079 310.787,43.237 308.417,38.394 305.668 C 33.550 302.919,29.230 300.003,28.793 299.187 C 28.281 298.231,28.000 262.926,28.000 199.614 L 28.000 101.524 30.117 99.562 C 31.281 98.483,31.884 97.600,31.456 97.600 C 31.029 97.600,29.896 98.433,28.939 99.452 M88.200 133.340 L 86.400 134.595 86.400 200.356 L 86.400 266.116 89.800 267.905 C 91.670 268.888,94.900 270.736,96.978 272.010 C 99.056 273.285,102.836 275.480,105.378 276.890 C 107.920 278.299,111.373 280.315,113.052 281.369 C 116.017 283.231,119.023 284.970,124.800 288.164 C 126.340 289.016,129.400 290.778,131.600 292.079 C 133.800 293.380,136.320 294.800,137.200 295.233 C 138.080 295.666,139.988 296.738,141.439 297.616 C 142.891 298.493,149.930 302.580,157.083 306.697 C 164.235 310.814,171.631 315.157,173.519 316.349 C 176.824 318.435,178.338 318.641,177.233 316.853 C 176.943 316.384,176.007 316.000,175.153 316.000 C 174.299 316.000,173.600 315.647,173.600 315.215 C 173.600 314.784,172.700 314.205,171.600 313.929 C 170.500 313.652,169.600 313.148,169.600 312.807 C 169.600 312.466,168.970 311.984,168.200 311.736 C 167.430 311.488,165.000 310.211,162.800 308.899 C 160.600 307.587,157.476 305.787,155.859 304.900 C 150.511 301.967,149.273 301.210,148.174 300.200 C 147.575 299.650,146.571 299.200,145.943 299.200 C 145.314 299.200,144.800 298.840,144.800 298.400 C 144.800 297.960,144.446 297.600,144.014 297.600 C 143.582 297.600,140.972 296.227,138.214 294.548 C 135.456 292.870,132.660 291.235,132.000 290.917 C 131.340 290.598,130.077 289.901,129.194 289.369 C 128.310 288.836,124.710 286.789,121.194 284.821 C 117.677 282.852,114.201 280.872,113.468 280.421 C 112.735 279.969,110.485 278.726,108.468 277.658 C 106.451 276.590,104.800 275.420,104.800 275.058 C 104.800 274.696,104.236 274.400,103.547 274.400 C 102.857 274.400,101.113 273.500,99.671 272.400 C 98.229 271.300,96.491 270.400,95.810 270.400 C 95.129 270.400,94.364 269.860,94.111 269.200 C 93.857 268.540,92.919 268.000,92.025 268.000 C 91.131 268.000,90.400 267.682,90.400 267.293 C 90.400 266.905,89.680 266.398,88.800 266.168 C 86.276 265.508,86.276 134.801,88.800 134.000 C 89.680 133.721,90.400 133.156,90.400 132.746 C 90.400 131.813,90.381 131.818,88.200 133.340 M301.144 139.909 C 301.385 140.299,300.866 140.805,299.991 141.034 C 298.426 141.443,297.887 140.780,298.933 139.733 C 299.675 138.992,300.624 139.068,301.144 139.909 M297.600 142.400 C 297.600 142.840,296.859 143.200,295.953 143.200 C 295.047 143.200,294.528 142.840,294.800 142.400 C 295.072 141.960,295.813 141.600,296.447 141.600 C 297.081 141.600,297.600 141.960,297.600 142.400 M291.200 146.400 C 291.200 146.840,290.459 147.200,289.553 147.200 C 288.647 147.200,288.128 146.840,288.400 146.400 C 288.672 145.960,289.413 145.600,290.047 145.600 C 290.681 145.600,291.200 145.960,291.200 146.400 M162.400 154.400 C 162.400 154.840,161.886 155.200,161.257 155.200 C 160.629 155.200,159.639 155.651,159.057 156.202 C 158.476 156.753,156.560 157.923,154.800 158.802 C 153.040 159.681,151.420 160.621,151.200 160.892 C 150.980 161.163,149.990 161.637,149.000 161.946 C 148.010 162.255,147.200 162.844,147.200 163.254 C 147.200 163.664,146.628 164.000,145.928 164.000 C 141.797 164.000,141.655 165.180,141.627 199.828 C 141.598 234.075,141.804 236.000,145.484 236.000 C 146.450 236.000,146.220 235.478,144.592 233.968 L 142.400 231.935 142.411 200.968 C 142.424 162.891,140.977 167.676,154.800 159.996 C 164.650 154.523,165.919 153.600,163.600 153.600 C 162.940 153.600,162.400 153.960,162.400 154.400 M255.570 234.449 C 255.281 234.916,254.270 235.636,253.322 236.047 C 251.655 236.772,250.655 237.356,246.403 240.087 C 245.302 240.794,242.240 242.557,239.600 244.003 C 233.047 247.593,231.913 248.436,232.605 249.200 C 232.932 249.561,232.773 249.612,232.252 249.313 C 231.730 249.014,229.930 249.540,228.252 250.483 C 217.381 256.587,212.093 259.676,208.120 262.242 C 201.647 266.422,198.979 266.225,190.614 260.952 C 186.992 258.668,183.848 256.800,183.628 256.800 C 183.408 256.800,180.875 255.360,178.000 253.600 C 175.125 251.840,172.577 250.400,172.339 250.400 C 171.397 250.400,173.055 252.143,174.678 252.858 C 175.625 253.275,177.840 254.521,179.600 255.626 C 181.360 256.732,183.700 258.071,184.800 258.602 C 185.900 259.133,186.980 259.755,187.200 259.984 C 187.862 260.673,190.688 262.355,192.522 263.153 C 193.470 263.564,194.450 264.234,194.702 264.641 C 194.953 265.048,196.780 265.834,198.761 266.389 L 202.363 267.398 202.582 297.756 C 202.833 332.727,202.919 332.263,196.890 328.457 C 195.098 327.326,193.437 326.400,193.200 326.400 C 192.963 326.400,191.309 325.479,189.525 324.353 C 187.742 323.227,185.915 322.428,185.467 322.578 C 185.018 322.727,185.674 323.370,186.925 324.006 C 188.176 324.641,191.399 326.520,194.086 328.181 C 200.118 331.908,199.573 331.928,207.028 327.698 C 210.422 325.772,214.460 323.489,216.000 322.624 C 222.822 318.794,226.388 316.250,225.817 315.622 C 225.478 315.249,225.626 315.187,226.146 315.486 C 226.666 315.784,228.286 315.305,229.746 314.421 C 231.206 313.537,232.940 312.564,233.600 312.259 C 234.260 311.954,237.056 310.330,239.814 308.652 C 242.572 306.973,245.019 305.600,245.253 305.600 C 245.486 305.600,247.647 304.340,250.054 302.800 C 252.461 301.260,254.598 300.000,254.801 300.000 C 255.005 300.000,257.428 298.620,260.186 296.933 C 262.944 295.247,267.360 292.667,270.000 291.202 C 272.640 289.736,275.880 287.879,277.200 287.075 C 278.520 286.271,280.140 285.367,280.800 285.066 C 281.460 284.765,284.199 283.142,286.886 281.459 C 289.574 279.777,292.021 278.400,292.325 278.400 C 292.628 278.400,294.750 277.218,297.038 275.772 C 299.327 274.327,304.008 271.552,307.441 269.606 L 313.681 266.068 311.841 264.641 C 310.636 263.706,309.171 263.348,307.600 263.604 C 305.907 263.881,305.648 263.804,306.721 263.345 C 307.981 262.806,307.086 262.029,301.521 258.829 C 297.825 256.702,293.990 254.468,293.000 253.863 C 291.956 253.225,291.200 253.107,291.200 253.582 C 291.200 254.032,290.480 254.400,289.600 254.400 C 288.720 254.400,288.000 254.040,288.000 253.600 C 288.000 253.160,288.609 252.800,289.353 252.800 C 290.533 252.800,290.507 252.650,289.153 251.625 C 287.356 250.267,286.081 250.036,286.800 251.200 C 287.072 251.640,286.695 252.000,285.962 252.000 C 285.133 252.000,284.795 251.566,285.069 250.852 C 285.349 250.123,284.487 249.101,282.707 248.051 C 281.165 247.141,280.127 246.758,280.399 247.199 C 280.672 247.639,280.153 248.000,279.247 248.000 C 277.488 248.000,276.980 246.740,278.531 246.223 C 279.043 246.052,278.103 245.111,276.443 244.131 C 274.075 242.734,273.180 242.553,272.293 243.289 C 271.670 243.805,270.910 243.977,270.604 243.671 C 270.297 243.364,270.524 242.818,271.109 242.457 C 271.988 241.913,271.984 241.680,271.085 241.104 C 268.081 239.178,266.222 238.510,264.975 238.910 C 263.951 239.238,263.869 239.158,264.656 238.593 C 265.452 238.023,265.017 237.506,262.890 236.497 C 261.338 235.760,259.851 234.807,259.587 234.379 C 258.943 233.337,256.227 233.385,255.570 234.449 M147.396 237.000 C 147.577 237.550,148.507 238.115,149.463 238.256 C 150.418 238.396,151.200 238.846,151.200 239.256 C 151.200 239.665,151.714 240.000,152.343 240.000 C 152.971 240.000,153.977 240.450,154.577 241.000 C 156.013 242.317,158.097 243.612,162.000 245.612 C 163.760 246.514,166.413 247.977,167.896 248.863 C 169.379 249.750,170.740 250.327,170.921 250.146 C 171.318 249.748,161.798 244.000,160.743 244.000 C 160.334 244.000,160.000 243.679,160.000 243.287 C 160.000 242.894,159.100 242.348,158.000 242.071 C 156.900 241.795,156.000 241.216,156.000 240.785 C 156.000 240.353,155.544 240.000,154.986 240.000 C 154.428 240.000,152.647 239.100,151.028 238.000 C 147.733 235.761,146.914 235.535,147.396 237.000 M297.600 257.600 C 297.600 258.040,297.060 258.400,296.400 258.400 C 295.740 258.400,295.200 258.040,295.200 257.600 C 295.200 257.160,295.740 256.800,296.400 256.800 C 297.060 256.800,297.600 257.160,297.600 257.600 M301.200 260.000 C 300.928 260.440,300.208 260.800,299.600 260.800 C 298.992 260.800,298.272 260.440,298.000 260.000 C 297.718 259.544,298.407 259.200,299.600 259.200 C 300.793 259.200,301.482 259.544,301.200 260.000 M304.400 261.600 C 304.672 262.040,304.354 262.400,303.694 262.400 C 303.034 262.400,302.272 262.040,302.000 261.600 C 301.728 261.160,302.046 260.800,302.706 260.800 C 303.366 260.800,304.128 261.160,304.400 261.600 M48.000 311.907 C 48.000 312.295,48.630 312.829,49.400 313.092 C 50.170 313.355,53.140 314.883,56.000 316.487 C 62.649 320.218,61.837 319.332,54.409 314.752 C 48.214 310.932,48.000 310.837,48.000 311.907 M341.923 317.128 C 337.559 319.537,334.659 321.600,335.636 321.600 C 336.072 321.600,337.753 320.700,339.372 319.600 C 340.991 318.500,342.650 317.600,343.060 317.600 C 343.469 317.600,344.252 317.060,344.800 316.400 C 346.053 314.890,345.912 314.926,341.923 317.128 M178.400 318.721 C 178.400 318.898,179.660 319.785,181.200 320.694 C 182.740 321.603,184.000 322.025,184.000 321.632 C 184.000 321.239,182.865 320.351,181.477 319.659 C 178.813 318.329,178.400 318.204,178.400 318.721 M62.753 320.425 C 63.607 321.071,64.666 321.600,65.106 321.600 C 65.546 321.600,65.207 321.071,64.353 320.425 C 63.499 319.779,62.440 319.251,62.000 319.251 C 61.560 319.251,61.899 319.779,62.753 320.425 M68.690 324.046 C 70.170 324.948,71.553 325.513,71.765 325.302 C 72.167 324.899,67.746 322.398,66.640 322.403 C 66.288 322.405,67.211 323.144,68.690 324.046 M328.000 325.121 C 326.460 326.125,323.478 327.903,321.373 329.073 C 319.269 330.242,316.749 331.713,315.773 332.342 C 313.546 333.778,285.957 349.588,282.908 351.175 C 281.667 351.821,281.018 352.473,281.467 352.622 C 282.188 352.863,285.060 351.378,290.030 348.195 C 290.894 347.642,292.140 346.945,292.800 346.647 C 293.460 346.348,296.256 344.730,299.014 343.052 C 301.772 341.373,304.211 340.000,304.434 340.000 C 304.657 340.000,307.119 338.560,309.906 336.800 C 312.693 335.040,315.384 333.600,315.886 333.600 C 316.389 333.600,316.800 333.282,316.800 332.893 C 316.800 332.505,317.430 331.984,318.200 331.736 C 318.970 331.488,321.400 330.192,323.600 328.856 C 325.800 327.520,328.375 326.083,329.322 325.663 C 331.094 324.877,332.601 323.163,331.447 323.247 C 331.091 323.273,329.540 324.116,328.000 325.121 M72.800 326.360 C 72.800 326.763,73.610 327.346,74.600 327.657 C 75.590 327.968,78.329 329.453,80.687 330.957 C 83.045 332.461,85.132 333.535,85.324 333.343 C 85.650 333.017,82.924 331.288,75.800 327.305 C 74.150 326.382,72.800 325.957,72.800 326.360 M86.973 334.493 C 87.922 335.442,89.650 336.476,94.800 339.177 C 96.560 340.100,99.080 341.543,100.400 342.383 C 101.720 343.223,103.700 344.404,104.800 345.007 C 113.108 349.561,116.539 351.522,117.419 352.220 C 117.980 352.664,118.634 352.833,118.872 352.595 C 119.110 352.356,116.132 350.369,112.253 348.179 C 108.374 345.988,101.103 341.812,96.096 338.898 C 87.080 333.651,85.245 332.765,86.973 334.493 M120.400 353.350 C 121.880 354.800,132.145 360.922,132.501 360.566 C 132.694 360.372,130.231 358.674,127.026 356.791 C 119.924 352.618,119.351 352.321,120.400 353.350 M276.962 354.562 C 275.512 355.458,274.463 356.330,274.632 356.499 C 275.146 357.012,280.000 354.337,280.000 353.541 C 280.000 352.637,280.171 352.580,276.962 354.562 M267.600 360.027 C 264.960 361.755,263.077 363.175,263.416 363.184 C 263.755 363.193,265.457 362.300,267.200 361.200 C 268.943 360.100,270.691 359.200,271.086 359.200 C 271.481 359.200,272.252 358.660,272.800 358.000 C 274.446 356.016,272.673 356.708,267.600 360.027 M134.400 362.000 C 134.948 362.660,135.961 363.200,136.651 363.200 C 137.655 363.200,137.596 362.966,136.353 362.025 C 134.321 360.489,133.133 360.473,134.400 362.000 M138.400 363.899 C 138.400 364.238,139.930 365.319,141.800 366.300 C 143.670 367.281,146.396 368.791,147.857 369.657 C 149.318 370.523,150.305 370.893,150.050 370.481 C 149.364 369.371,138.400 363.177,138.400 363.899 M260.800 363.903 C 260.800 364.290,259.708 365.058,258.374 365.611 C 257.040 366.163,256.138 366.805,256.370 367.036 C 256.907 367.574,262.400 364.642,262.400 363.818 C 262.400 363.478,262.040 363.200,261.600 363.200 C 261.160 363.200,260.800 363.516,260.800 363.903 M252.162 368.962 C 250.712 369.858,249.663 370.730,249.832 370.899 C 250.346 371.412,255.200 368.737,255.200 367.941 C 255.200 367.037,255.371 366.980,252.162 368.962 M152.353 372.425 C 153.207 373.071,154.377 373.600,154.953 373.600 C 155.529 373.600,156.000 373.953,156.000 374.385 C 156.000 374.816,156.900 375.395,158.000 375.671 C 159.100 375.948,160.000 376.494,160.000 376.887 C 160.000 377.279,160.381 377.600,160.847 377.600 C 162.125 377.600,160.877 376.004,158.922 375.139 C 157.975 374.719,156.120 373.688,154.800 372.847 C 151.974 371.046,150.103 370.724,152.353 372.425 M243.426 374.170 C 240.690 375.792,238.613 377.279,238.810 377.476 C 239.006 377.673,240.607 376.881,242.367 375.717 C 244.126 374.553,245.889 373.600,246.285 373.600 C 246.680 373.600,247.452 373.060,248.000 372.400 C 249.407 370.705,249.017 370.856,243.426 374.170 M162.400 377.840 C 162.400 378.216,171.831 384.000,172.443 384.000 C 172.624 384.000,175.125 385.440,178.000 387.200 C 180.875 388.960,183.409 390.400,183.630 390.400 C 183.851 390.400,185.499 391.326,187.291 392.458 C 189.084 393.590,190.718 394.348,190.923 394.144 C 191.127 393.939,185.074 390.223,177.471 385.886 C 162.472 377.329,162.400 377.291,162.400 377.840 M226.800 383.709 C 221.080 387.046,215.048 390.493,213.396 391.370 C 210.627 392.841,208.863 394.400,209.969 394.400 C 210.223 394.400,211.775 393.557,213.416 392.527 C 215.057 391.497,218.020 389.753,220.000 388.651 C 231.144 382.449,233.237 381.233,233.600 380.749 C 233.820 380.456,234.810 379.963,235.800 379.654 C 236.790 379.345,237.600 378.756,237.600 378.346 C 237.600 377.339,238.426 376.929,226.800 383.709 M192.369 395.149 C 192.940 396.073,197.745 398.522,198.164 398.103 C 198.465 397.802,193.083 394.400,192.307 394.400 C 192.086 394.400,192.114 394.737,192.369 395.149 M204.962 396.162 C 203.512 397.058,202.476 397.943,202.661 398.128 C 203.016 398.483,208.800 395.273,208.800 394.721 C 208.800 394.091,207.561 394.556,204.962 396.162 " stroke="none" fill="#cee7f5" fill-rule="evenodd"></path></g></svg>